<svg xmlns="http://www.w3.org/2000/svg" width="56" height="56" viewBox="0 0 56 56"><g transform="translate(-160 -7506)"><rect width="56" height="56" rx="28" transform="translate(160 7506)" fill="#f5f5f5"/><g transform="translate(164 7511)"><rect width="25" height="10" rx="2" transform="translate(10 8)" fill="none" stroke="#000" stroke-miterlimit="10" stroke-width="2"/><path d="M22,30V24H38V12" fill="none" stroke="#000" stroke-linecap="round" stroke-linejoin="round" stroke-width="2"/><line x1="3" transform="translate(35 12)" fill="none" stroke="#000" stroke-linecap="round" stroke-linejoin="round" stroke-width="2"/><path d="M1,0H7A1,1,0,0,1,8,1V6a4,4,0,0,1-4,4H4A4,4,0,0,1,0,6V1A1,1,0,0,1,1,0Z" transform="translate(18 30)" fill="none" stroke="#000" stroke-linecap="round" stroke-linejoin="round" stroke-width="2"/></g></g></svg>