<svg xmlns="http://www.w3.org/2000/svg" width="56" height="56" viewBox="0 0 56 56"><g transform="translate(-543 -5606)"><g transform="translate(543 5606)" fill="none" stroke="#2788d9" stroke-width="3"><circle cx="28" cy="28" r="28" stroke="none"/><circle cx="28" cy="28" r="26.5" fill="none"/></g><path d="M28.688,21.47H21.312V18.6l-3.76,6.7,3.76,6.7V29.14h3.76a2.6,2.6,0,0,0,2.272-1.328L32,19.532a3.8,3.8,0,0,1-3.312,1.94ZM23.408,9.938l3.776-6.7L24.768,4.682S23.824,2.99,23.44,2.316a2.928,2.928,0,0,0-5.152.016S17.424,3.86,16.56,5.42l1.76,3.122L15.888,9.954l7.52-.016ZM8.88,17.58l-3.7,6.554a3.992,3.992,0,0,0-.016,3.926L.512,19.778a2.74,2.74,0,0,1,.016-2.694L2.416,13.75,0,12.32H7.536l3.76,6.7Zm16.432,3.088-3.76-6.7,6.464-3.828C29.488,12.782,31.36,16.1,31.36,16.1a3.1,3.1,0,0,1,.016,3.056,2.98,2.98,0,0,1-2.592,1.512H25.312ZM5.824,24.64s.864-1.528,1.744-3.1H15.1v7.672H8.4A2.908,2.908,0,0,1,5.808,27.7a3.1,3.1,0,0,1,.016-3.056ZM17.632,1.94c-.88,1.56-5.76,10.232-5.744,10.232l-6.5-3.844s3.1-5.6,3.92-6.964A2.606,2.606,0,0,1,11.568,0H20.88a3.692,3.692,0,0,0-3.248,1.94Z" transform="translate(555 5618)" fill="#2788d9"/></g></svg>