<svg xmlns="http://www.w3.org/2000/svg" width="56" height="56" viewBox="0 0 56 56"><g transform="translate(-543 -5606)"><g transform="translate(543 5606)" fill="none" stroke="#73c356" stroke-width="3"><circle cx="28" cy="28" r="28" stroke="none"/><circle cx="28" cy="28" r="26.5" fill="none"/></g><path d="M231.04,170.433c-2.617-.654-16.454-4.8-17.534-19.584a23.055,23.055,0,0,0,2.883,17.181c3.868,6.015,9.559,5.756,12.756,4.332,6.8.589,10.928-1.929,10.928-1.929-3.058,1.109-8.21.163-9.034,0m-15.2-29.223a28.077,28.077,0,0,0-.532,11.3A8.239,8.239,0,0,1,217,148.871a16.206,16.206,0,0,0-.658,7.329,18.839,18.839,0,0,0,2.323,4.295,13.6,13.6,0,0,1,1.755-7.14,21.131,21.131,0,0,0,.6,9.82,22.552,22.552,0,0,0,3.5,2.73,15.572,15.572,0,0,1,.4-8.9,23.705,23.705,0,0,0,2.457,10.468,24.177,24.177,0,0,0,5.07,1.773,15.5,15.5,0,0,0-6.231-17.344,37.572,37.572,0,0,1-10.381-10.693" transform="translate(347.491 5476.791)" fill="#73c356"/></g></svg>