<svg xmlns="http://www.w3.org/2000/svg" width="56" height="56" viewBox="0 0 56 56"><g transform="translate(-160 -7506)"><rect width="56" height="56" rx="28" transform="translate(160 7506)" fill="#f5f5f5"/><g transform="translate(161.01 7510)"><path d="M9.283,24.706l14.013,14A1,1,0,0,0,25,38V10A1,1,0,0,0,23.3,9.3l-14.013,14A1,1,0,0,0,9.283,24.706Z" fill="none" stroke="#000" stroke-miterlimit="10" stroke-width="2"/><rect width="10" height="30" rx="1" transform="translate(29 9)" fill="none" stroke="#000" stroke-miterlimit="10" stroke-width="2"/><rect width="4" height="2" rx="1" transform="translate(29 15)" fill="#231815"/><rect width="4" height="2" rx="1" transform="translate(29 31)" fill="#231815"/><rect width="5" height="2" rx="1" transform="translate(29 23)" fill="#231815"/><path d="M15.7,24.706,19.3,28.3a1,1,0,0,0,1.7-.706V20.408a1,1,0,0,0-1.7-.706L15.7,23.294A1,1,0,0,0,15.7,24.706Z" fill="none" stroke="#000" stroke-miterlimit="10" stroke-width="2"/></g></g></svg>