<svg xmlns="http://www.w3.org/2000/svg" width="56" height="56" viewBox="0 0 56 56"><g transform="translate(-160 -7506)"><rect width="56" height="56" rx="28" transform="translate(160 7506)" fill="#f5f5f5"/><g transform="translate(164 7510)"><path d="M3-1A4,4,0,1,1-1,3,4,4,0,0,1,3-1ZM3,5A2,2,0,1,0,1,3,2,2,0,0,0,3,5Z" transform="translate(10 25)"/><path d="M18,35H16a3,3,0,0,0-6,0H8a5,5,0,0,1,10,0Z"/><path d="M16,40H10a2,2,0,0,1-2-2V35h2v3s0,0,0,0h6s0,0,0,0V35h2v3A2,2,0,0,1,16,40Z"/><path d="M3-1A4,4,0,1,1-1,3,4,4,0,0,1,3-1ZM3,5A2,2,0,1,0,1,3,2,2,0,0,0,3,5Z" transform="translate(21 25)"/><path d="M29,35H27a3,3,0,0,0-6,0H19a5,5,0,0,1,10,0Z"/><path d="M27,40H21a2,2,0,0,1-2-2V35h2v3s0,0,0,0h6s0,0,0,0V35h2v3A2,2,0,0,1,27,40Z"/><path d="M3-1A4,4,0,1,1-1,3,4,4,0,0,1,3-1ZM3,5A2,2,0,1,0,1,3,2,2,0,0,0,3,5Z" transform="translate(32 25)"/><path d="M40,35H38a3,3,0,0,0-6,0H30a5,5,0,0,1,10,0Z"/><path d="M38,40H32a2,2,0,0,1-2-2V35h2v3s0,0,0,0h6s0,0,0,0V35h2v3A2,2,0,0,1,38,40Z"/><path d="M28.459,22.762a1.945,1.945,0,0,1-1.241-.45L25.639,21H14.926A2.967,2.967,0,0,1,12,18V11a2.967,2.967,0,0,1,2.926-3H37.074A2.967,2.967,0,0,1,40,11v7a2.967,2.967,0,0,1-2.926,3H31.608l-2.046,1.416A1.928,1.928,0,0,1,28.459,22.762ZM14.926,10A.966.966,0,0,0,14,11v7a.966.966,0,0,0,.926,1H26.361l2.1,1.745L30.984,19h6.09A.966.966,0,0,0,38,18V11a.966.966,0,0,0-.926-1Z"/></g></g></svg>