<svg xmlns="http://www.w3.org/2000/svg" width="56" height="56" viewBox="0 0 56 56"><g transform="translate(-160 -7506)"><rect width="56" height="56" rx="28" transform="translate(160 7506)" fill="#f5f5f5"/><g transform="translate(164 7510)"><path d="M23,39H11a2.006,2.006,0,0,1-2-2V11a2.006,2.006,0,0,1,2-2H35a2.006,2.006,0,0,1,2,2V22" fill="none" stroke="#000" stroke-linecap="round" stroke-linejoin="round" stroke-width="2"/><circle cx="2" cy="2" r="2" transform="translate(31 26)" fill="none" stroke="#000" stroke-linecap="round" stroke-linejoin="round" stroke-width="2"/><line x1="2" y2="4" transform="translate(31 30)" fill="none" stroke="#000" stroke-linecap="round" stroke-linejoin="round" stroke-width="2"/><line x1="2" y1="4" transform="translate(33 30)" fill="none" stroke="#000" stroke-linecap="round" stroke-linejoin="round" stroke-width="2"/><rect width="12" height="4" rx="1" transform="translate(27 35)" fill="none" stroke="#000" stroke-linecap="round" stroke-linejoin="round" stroke-width="2"/><line x2="16" transform="translate(14 18)" fill="none" stroke="#000" stroke-linecap="round" stroke-linejoin="round" stroke-width="2"/><line x2="12" transform="translate(14 24)" fill="none" stroke="#000" stroke-linecap="round" stroke-linejoin="round" stroke-width="2"/></g></g></svg>