<?xml version="1.0" encoding="utf-8"?>
<svg width="73px" height="45px" viewBox="0 0 73 45" version="1.1" xmlns:xlink="http://www.w3.org/1999/xlink" xmlns="http://www.w3.org/2000/svg">
  <desc>Created with Lunacy</desc>
  <g id="编组-16备份" transform="translate(0.38867188 0.38867188)">
    <path d="M21.999 0L50.001 0Q50.541 0 51.0804 0.0264988Q51.6198 0.0529975 52.1573 0.105931Q52.6947 0.158865 53.2289 0.238106Q53.7631 0.317347 54.2928 0.422705Q54.8225 0.528062 55.3463 0.659282Q55.8702 0.790503 56.387 0.947269Q56.9038 1.10404 57.4122 1.28597Q57.9207 1.46791 58.4196 1.67457Q58.9186 1.88124 59.4068 2.11214Q59.895 2.34304 60.3713 2.59761Q60.8475 2.85219 61.3107 3.12983Q61.7739 3.40747 62.223 3.7075Q62.672 4.00753 63.1058 4.32924Q63.5395 4.65094 63.957 4.99354Q64.3745 5.33614 64.7746 5.69882Q65.1748 6.06149 65.5566 6.44336Q65.9385 6.82523 66.3012 7.22537Q66.6638 7.62552 67.0064 8.04298Q67.349 8.46044 67.6708 8.89421Q67.9925 9.32798 68.2925 9.77701Q68.5925 10.226 68.8702 10.6893Q69.1478 11.1525 69.4024 11.6287Q69.657 12.105 69.8879 12.5932Q70.1188 13.0814 70.3254 13.5803Q70.5321 14.0793 70.714 14.5878Q70.896 15.0962 71.0527 15.613Q71.2095 16.1298 71.3407 16.6537Q71.4719 17.1775 71.5773 17.7072Q71.6826 18.2369 71.7619 18.7711Q71.8411 19.3053 71.8941 19.8427Q71.947 20.3802 71.9735 20.9196Q72 21.459 72 21.999L72 22.001Q72 22.541 71.9735 23.0804Q71.947 23.6198 71.8941 24.1573Q71.8411 24.6947 71.7619 25.2289Q71.6826 25.7631 71.5773 26.2928Q71.4719 26.8225 71.3407 27.3463Q71.2095 27.8702 71.0527 28.387Q70.896 28.9038 70.714 29.4122Q70.5321 29.9207 70.3254 30.4196Q70.1188 30.9186 69.8879 31.4068Q69.657 31.895 69.4024 32.3713Q69.1478 32.8475 68.8702 33.3107Q68.5925 33.774 68.2925 34.223Q67.9925 34.672 67.6708 35.1058Q67.349 35.5396 67.0065 35.957Q66.6638 36.3745 66.3012 36.7746Q65.9385 37.1748 65.5566 37.5566Q65.1748 37.9385 64.7746 38.3012Q64.3745 38.6639 63.957 39.0065Q63.5395 39.3491 63.1058 39.6708Q62.672 39.9925 62.223 40.2925Q61.7739 40.5925 61.3107 40.8702Q60.8475 41.1478 60.3713 41.4024Q59.895 41.657 59.4068 41.8879Q58.9186 42.1188 58.4196 42.3254Q57.9207 42.5321 57.4122 42.714Q56.9038 42.896 56.387 43.0527Q55.8702 43.2095 55.3463 43.3407Q54.8225 43.4719 54.2928 43.5773Q53.7631 43.6826 53.2289 43.7619Q52.6947 43.8411 52.1573 43.8941Q51.6198 43.947 51.0804 43.9735Q50.541 44 50.001 44L21.999 44Q21.459 44 20.9196 43.9735Q20.3802 43.947 19.8427 43.8941Q19.3053 43.8411 18.7711 43.7619Q18.2369 43.6826 17.7072 43.5773Q17.1775 43.4719 16.6537 43.3407Q16.1298 43.2095 15.613 43.0527Q15.0962 42.896 14.5878 42.714Q14.0793 42.5321 13.5803 42.3254Q13.0814 42.1188 12.5932 41.8879Q12.105 41.657 11.6287 41.4024Q11.1525 41.1478 10.6893 40.8702Q10.226 40.5925 9.77701 40.2925Q9.32798 39.9925 8.89421 39.6708Q8.46044 39.3491 8.04298 39.0065Q7.62552 38.6639 7.22537 38.3012Q6.82523 37.9385 6.44336 37.5566Q6.06149 37.1748 5.69882 36.7746Q5.33614 36.3745 4.99354 35.957Q4.65094 35.5396 4.32924 35.1058Q4.00753 34.672 3.7075 34.223Q3.40747 33.774 3.12983 33.3107Q2.85219 32.8475 2.59761 32.3713Q2.34304 31.895 2.11214 31.4068Q1.88124 30.9186 1.67457 30.4196Q1.46791 29.9207 1.28597 29.4122Q1.10404 28.9038 0.947269 28.387Q0.790503 27.8702 0.659282 27.3463Q0.528062 26.8225 0.422705 26.2928Q0.317347 25.7631 0.238106 25.2289Q0.158865 24.6947 0.105931 24.1573Q0.0529975 23.6198 0.0264988 23.0804Q0 22.541 0 22.001L0 21.999Q0 21.459 0.0264988 20.9196Q0.0529975 20.3802 0.105931 19.8427Q0.158865 19.3053 0.238106 18.7711Q0.317347 18.2369 0.422705 17.7072Q0.528062 17.1775 0.659282 16.6537Q0.790503 16.1298 0.947269 15.613Q1.10404 15.0962 1.28597 14.5878Q1.46791 14.0793 1.67457 13.5803Q1.88124 13.0814 2.11214 12.5932Q2.34304 12.105 2.59761 11.6287Q2.85219 11.1525 3.12983 10.6893Q3.40747 10.226 3.7075 9.77701Q4.00753 9.32798 4.32924 8.89421Q4.65094 8.46044 4.99354 8.04298Q5.33614 7.62552 5.69882 7.22537Q6.06149 6.82523 6.44336 6.44336Q6.82523 6.06149 7.22537 5.69882Q7.62552 5.33614 8.04298 4.99354Q8.46044 4.65094 8.89421 4.32924Q9.32798 4.00753 9.77701 3.7075Q10.226 3.40747 10.6893 3.12983Q11.1525 2.85219 11.6287 2.59761Q12.105 2.34304 12.5932 2.11214Q13.0814 1.88124 13.5803 1.67457Q14.0793 1.46791 14.5878 1.28597Q15.0962 1.10404 15.613 0.947269Q16.1298 0.790503 16.6537 0.659282Q17.1775 0.528062 17.7072 0.422705Q18.2369 0.317347 18.7711 0.238106Q19.3053 0.158865 19.8427 0.105931Q20.3802 0.0529975 20.9196 0.0264988Q21.459 0 21.999 0Z" id="矩形" fill="#575C66" fill-opacity="0.8" fill-rule="evenodd" stroke="none" />
    <g id="编组-32" transform="translate(22 8)">
      <path d="M0 0L28 0L28 28L0 28L0 0Z" id="矩形备份-16" fill="none" fill-rule="evenodd" stroke="none" />
      <path d="M0.701519 0L2.81683 0Q3.00042 0 3.16932 0.0719855Q3.33821 0.143971 3.46536 0.276414L7.66825 4.65443Q7.7014 4.68895 7.72738 4.72915Q7.75335 4.76935 7.77122 4.81375Q7.78908 4.85816 7.79818 4.90515Q7.80728 4.95214 7.80728 5Q7.80728 5.04786 7.79818 5.09485Q7.78908 5.14184 7.77122 5.18625Q7.75335 5.23065 7.72738 5.27085Q7.7014 5.31105 7.66825 5.34557L3.46536 9.72359Q3.33821 9.85603 3.16932 9.92801Q3.00042 10 2.81683 10L0.701519 10Q0.679655 10 0.658024 9.99682Q0.636393 9.99364 0.615454 9.98735Q0.594516 9.98105 0.574715 9.97178Q0.554915 9.96251 0.536674 9.95045Q0.518433 9.9384 0.50214 9.92382Q0.485847 9.90924 0.471847 9.89245Q0.457848 9.87565 0.446441 9.857Q0.435034 9.83835 0.426461 9.81823Q0.417888 9.79812 0.412333 9.77698Q0.406777 9.75583 0.404357 9.7341Q0.401937 9.71237 0.402703 9.69052Q0.403469 9.66867 0.407406 9.64716Q0.411343 9.62566 0.418366 9.60495Q0.42539 9.58425 0.43535 9.56478Q0.445311 9.54532 0.457997 9.52751Q0.470683 9.50971 0.485824 9.49393L4.60122 5.20707Q4.62108 5.18638 4.63664 5.16229Q4.65221 5.1382 4.66291 5.1116Q4.67362 5.08499 4.67907 5.05684Q4.68452 5.02868 4.68452 5Q4.68452 4.97132 4.67907 4.94316Q4.67362 4.91501 4.66291 4.8884Q4.65221 4.86179 4.63664 4.83771Q4.62108 4.81362 4.60122 4.79293L0.485824 0.506067Q0.470683 0.490295 0.457997 0.472488Q0.445311 0.45468 0.43535 0.435217Q0.42539 0.415754 0.418366 0.395049Q0.411343 0.374344 0.407406 0.352837Q0.403469 0.331331 0.402703 0.309481Q0.401937 0.28763 0.404357 0.265901Q0.406777 0.244171 0.412333 0.223025Q0.417888 0.201878 0.426461 0.181765Q0.435034 0.161652 0.446441 0.143Q0.457848 0.124348 0.471847 0.107553Q0.485847 0.090759 0.50214 0.0761797Q0.518433 0.0616005 0.536674 0.0495464Q0.554915 0.0374924 0.574715 0.0282201Q0.594516 0.0189478 0.615454 0.0126544Q0.636393 0.00636103 0.658024 0.00318051Q0.679655 0 0.701519 0L0.701519 0Z" transform="translate(10 9)" id="矩形备份-17" fill="#FFFFFF" fill-rule="evenodd" stroke="none" />
    </g>
  </g>
</svg>