<?xml version="1.0" encoding="UTF-8"?>
<svg width="72px" height="44px" viewBox="0 0 72 44" version="1.1" xmlns="http://www.w3.org/2000/svg" xmlns:xlink="http://www.w3.org/1999/xlink">
    <title>向右切换nor</title>
    <g id="源文件" stroke="none" stroke-width="1" fill="none" fill-rule="evenodd">
        <g id="T_体验店1920弹窗" transform="translate(-269.000000, -1509.000000)">
            <g id="向右切换nor" transform="translate(269.000000, 1509.000000)">
                <rect id="矩形" fill="#575C66" opacity="0.400000006" x="0" y="0" width="72" height="44" rx="22"></rect>
                <g id="编组-32" transform="translate(22.000000, 8.000000)">
                    <rect id="矩形备份-16" x="0" y="0" width="28" height="28"></rect>
                    <path d="M10.7038654,9 L12.8164039,9 C13.0614691,9 13.2959371,9.09993445 13.4656525,9.27672135 L17.6675847,13.6537341 C17.8533265,13.8472151 17.8533265,14.1527849 17.6675847,14.3462659 L13.4656525,18.7232786 C13.2959371,18.9000655 13.0614691,19 12.8164039,19 L10.7038654,19 C10.5381799,19 10.4038654,18.8656854 10.4038654,18.7 C10.4038654,18.6225542 10.4338155,18.5481089 10.4874492,18.4922405 L14.6005508,14.2077595 C14.7119959,14.0916709 14.7119959,13.9083291 14.6005508,13.7922405 L10.4874492,9.50775955 C10.3727067,9.38823618 10.3765824,9.19832623 10.4961058,9.0835838 C10.5519742,9.02995012 10.6264196,9 10.7038654,9 Z" id="矩形备份-17" fill="#FFFFFF"></path>
                </g>
            </g>
        </g>
    </g>
</svg>