<svg width="90" height="18" viewBox="0 0 90 18" fill="none" xmlns="http://www.w3.org/2000/svg">
<path fill-rule="evenodd" clip-rule="evenodd" d="M33.4621 3.20934C33.392 3.57236 33.0743 3.83464 32.7046 3.83464L28.0589 3.83464C27.9987 3.83464 27.9532 3.78015 27.964 3.72095L28.2139 2.34642C28.2806 1.97956 28.6002 1.71289 28.973 1.71289L33.6342 1.71289C33.6947 1.71289 33.7403 1.76812 33.7288 1.82761L33.4621 3.20934Z" fill="#EE2737"/>
<path fill-rule="evenodd" clip-rule="evenodd" d="M7.48725 3.60184C7.41512 3.96248 7.09847 4.22208 6.73069 4.22208H1.20562C0.837838 4.22208 0.521184 3.96248 0.449057 3.60184L0.210402 2.40857C0.198466 2.34889 0.244112 2.29321 0.304972 2.29321H7.63134C7.6922 2.29321 7.73784 2.34889 7.72591 2.40857L7.48725 3.60184Z" fill="#EE2737"/>
<path fill-rule="evenodd" clip-rule="evenodd" d="M13.453 3.44303C13.453 3.38977 13.4098 3.34659 13.3565 3.34659H9.73931C9.37153 3.34659 9.05488 3.087 8.98275 2.72636L8.74409 1.53308C8.73216 1.4734 8.7778 1.41772 8.83866 1.41772H15.2854C15.3386 1.41772 15.3818 1.4609 15.3818 1.51417V7.1455C15.3818 7.78467 14.8637 8.30282 14.2245 8.30282H10.8305C10.7773 8.30282 10.7341 8.346 10.7341 8.39926V13.4896C10.7341 13.8574 10.4745 14.174 10.1139 14.2462L8.92058 14.4848C8.8609 14.4968 8.80522 14.4511 8.80522 14.3903V7.1455C8.80522 6.71938 9.15065 6.37395 9.57677 6.37395H13.3565C13.4098 6.37395 13.453 6.33077 13.453 6.27751V3.44303Z" fill="#EE2737"/>
<path fill-rule="evenodd" clip-rule="evenodd" d="M7.69589 11.5169C7.62377 11.8775 7.30711 12.1371 6.93933 12.1371H3.51172V10.2083H7.83998C7.90084 10.2083 7.94648 10.2639 7.93455 10.3236L7.69589 11.5169Z" fill="#EE2737"/>
<path fill-rule="evenodd" clip-rule="evenodd" d="M4.50541 0.261615C4.86605 0.333743 5.12564 0.650396 5.12564 1.01818L5.12564 15.9043L3.19678 15.9043L3.19678 -0.000111401L4.50541 0.261615Z" fill="#EE2737"/>
<path fill-rule="evenodd" clip-rule="evenodd" d="M15.2667 9.47448C15.3264 9.46254 15.3821 9.50819 15.3821 9.56905L15.3821 13.7363C15.3821 14.1624 15.0366 14.5078 14.6105 14.5078L13.4532 14.5078L12.871 14.5078C12.7792 14.5078 12.7393 14.3915 12.8119 14.3352L13.0054 14.185C13.2879 13.9658 13.4532 13.6283 13.4532 13.2707L13.4532 10.4697C13.4532 10.1019 13.7128 9.78526 14.0734 9.71313L15.2667 9.47448Z" fill="#EE2737"/>
<path fill-rule="evenodd" clip-rule="evenodd" d="M7.69549 7.43876C7.62336 7.7994 7.3067 8.05899 6.93892 8.05899H0.997124C0.629342 8.05899 0.312688 7.7994 0.24056 7.43876L0.00190564 6.24548C-0.01003 6.18581 0.0356157 6.13013 0.0964758 6.13013H7.83957C7.90043 6.13013 7.94608 6.18581 7.93414 6.24548L7.69549 7.43876Z" fill="#EE2737"/>
<path fill-rule="evenodd" clip-rule="evenodd" d="M2.10539 15.431C2.05212 15.431 2.00894 15.3879 2.00894 15.3346V10.9773C2.00894 10.6096 1.74935 10.2929 1.38871 10.2208L0.195436 9.98213C0.135757 9.97019 0.0800781 10.0158 0.0800781 10.0767V16.2026C0.0800781 16.8417 0.598226 17.3599 1.23739 17.3599L15.0042 17.3599C15.372 17.3599 15.6887 17.1003 15.7608 16.7397L15.9995 15.5464C16.0114 15.4867 15.9657 15.4311 15.9049 15.4311L2.10539 15.431Z" fill="#EE2737"/>
<path fill-rule="evenodd" clip-rule="evenodd" d="M26.3471 0.270548C26.714 0.33725 26.9806 0.656771 26.9806 1.02965L26.9806 6.34472C26.9806 6.39798 26.9375 6.44116 26.8842 6.44116L24.9553 6.44116C24.9021 6.44116 24.8589 6.39798 24.8589 6.34472L24.8589 0.115521C24.8589 0.0553497 24.9134 0.00986948 24.9726 0.0206333L26.3471 0.270548Z" fill="#EE2737"/>
<path fill-rule="evenodd" clip-rule="evenodd" d="M20.7582 13.7219C21.1251 13.7886 21.3918 14.1081 21.3918 14.481L21.3918 17.4301C21.3918 17.4903 21.3373 17.5358 21.2781 17.525L19.9035 17.2751C19.5367 17.2084 19.27 16.8889 19.27 16.516L19.27 13.5668C19.27 13.5067 19.3245 13.4612 19.3837 13.4719L20.7582 13.7219Z" fill="#EE2737"/>
<path fill-rule="evenodd" clip-rule="evenodd" d="M25.1795 14.3242C25.5534 14.3845 25.8283 14.7072 25.8283 15.0859L25.8283 17.4326C25.8283 17.492 25.7751 17.5373 25.7165 17.5278L24.3553 17.3084C23.9814 17.2481 23.7065 16.9254 23.7065 16.5467L23.7065 14.2C23.7065 14.1406 23.7597 14.0953 23.8183 14.1048L25.1795 14.3242Z" fill="#EE2737"/>
<path fill-rule="evenodd" clip-rule="evenodd" d="M29.6161 14.3242C29.9899 14.3845 30.2648 14.7072 30.2648 15.0859L30.2648 17.4326C30.2648 17.492 30.2117 17.5373 30.153 17.5278L28.7918 17.3084C28.4179 17.2481 28.1431 16.9254 28.1431 16.5467L28.1431 14.2C28.1431 14.1406 28.1962 14.0953 28.2549 14.1048L29.6161 14.3242Z" fill="#EE2737"/>
<path fill-rule="evenodd" clip-rule="evenodd" d="M34.0678 13.7219C34.4347 13.7886 34.7013 14.1081 34.7013 14.481L34.7013 17.4301C34.7013 17.4903 34.6468 17.5358 34.5876 17.525L33.2131 17.2751C32.8463 17.2084 32.5796 16.8889 32.5796 16.516L32.5796 13.5668C32.5796 13.5067 32.6341 13.4612 32.6933 13.4719L34.0678 13.7219Z" fill="#EE2737"/>
<path fill-rule="evenodd" clip-rule="evenodd" d="M20.1899 5.58472C20.1899 5.53146 20.2331 5.48828 20.2864 5.48828H33.6746C33.7279 5.48828 33.771 5.53146 33.771 5.58472V10.9322C33.771 11.9975 32.9075 12.861 31.8422 12.861H22.1188C21.0535 12.861 20.1899 11.9975 20.1899 10.9322V5.58472ZM22.4081 7.61003C22.3549 7.61003 22.3117 7.65321 22.3117 7.70648V10.3535C22.3117 10.5666 22.4844 10.7393 22.6975 10.7393H31.2635C31.4766 10.7393 31.6493 10.5666 31.6493 10.3535V7.70648C31.6493 7.65321 31.6061 7.61003 31.5529 7.61003H22.4081Z" fill="#EE2737"/>
<path fill-rule="evenodd" clip-rule="evenodd" d="M44.8855 17.8844C44.8263 17.8951 44.7719 17.8496 44.7719 17.7895V11.2799H40.7394V11.572C40.7394 11.9456 40.4718 12.2655 40.1041 12.3314L38.7028 12.5829C38.6437 12.5935 38.5894 12.548 38.5894 12.4879V3.24434C38.5894 3.19107 38.6325 3.1479 38.6858 3.1479H38.7053H44.7719V0.157994C44.7719 0.0978495 44.8263 0.0523761 44.8855 0.063095L46.2879 0.317084C46.655 0.383573 46.9219 0.703204 46.9219 1.07628V3.1479H52.9883H53.0078C53.0611 3.1479 53.1042 3.19107 53.1042 3.24434V12.4879C53.1042 12.548 53.0499 12.5935 52.9908 12.5829L51.5895 12.3314C51.2218 12.2655 50.9542 11.9456 50.9542 11.572V11.2799H46.9219V16.8712C46.9219 17.2443 46.655 17.5639 46.2879 17.6304L44.8855 17.8844ZM44.7719 9.12992V5.26965H40.8358C40.7825 5.26965 40.7394 5.31283 40.7394 5.36609V9.12992H44.7719ZM46.9219 9.12992H50.9542V5.36609C50.9542 5.31283 50.911 5.26965 50.8578 5.26965H46.9219V9.12992Z" fill="#EE2737"/>
<path fill-rule="evenodd" clip-rule="evenodd" d="M65.2907 2.87296L71.979 2.87296C72.0396 2.87296 72.0852 2.92818 72.0737 2.98768L71.8069 4.3694C71.7369 4.73243 71.4191 4.99471 71.0494 4.99471H69.5543C68.7457 7.80332 67.3127 10.3143 65.5842 12.4224C67.1317 13.8997 69.1909 15.0614 72.0015 15.768C72.059 15.7825 72.0914 15.8442 72.07 15.8996C71.9744 16.1471 71.8159 16.6 71.6822 16.9882C71.5474 17.3796 71.1285 17.5988 70.7345 17.4717C67.9969 16.5887 65.7975 15.4236 64.1332 13.8557C62.4681 15.4244 60.2577 16.5899 57.4568 17.4731C57.0607 17.598 56.6409 17.3771 56.5065 16.9841C56.3732 16.5943 56.2197 16.1544 56.1209 15.8993C56.0996 15.8442 56.1315 15.7825 56.1888 15.7681C59.0104 15.06 61.149 13.8998 62.6951 12.4224C61.0047 10.354 59.4214 7.72985 58.6096 4.99471H57.1413C56.7716 4.99471 56.4538 4.73243 56.3837 4.3694L56.117 2.98768C56.1055 2.92818 56.1511 2.87296 56.2117 2.87296L63.2894 2.87296C63.287 2.84801 63.2857 2.82275 63.2857 2.79724V0.138954C63.2857 0.0783815 63.3409 0.0328033 63.4004 0.0442483L64.6649 0.287553C65.0281 0.357445 65.2907 0.6753 65.2907 1.0452V2.87296ZM60.8673 4.99471C61.1977 6.05936 62.3056 8.67946 64.1332 10.998C65.9857 8.68739 66.9902 6.22138 67.3735 4.99471C67.3735 4.99471 65.5559 4.99471 64.2351 4.99471C63.0151 4.99471 60.8673 4.99471 60.8673 4.99471Z" fill="#EE2737"/>
<path fill-rule="evenodd" clip-rule="evenodd" d="M77.3456 3.53948C77.2923 3.53948 77.2491 3.58266 77.2491 3.63592V16.5929C77.2491 16.9664 76.9815 17.2863 76.6138 17.3523L75.2126 17.6037C75.1535 17.6143 75.0991 17.5689 75.0991 17.5088V1.51417C75.0991 1.4609 75.1423 1.41772 75.1956 1.41772H75.215H89.8839H89.9033C89.9566 1.41772 89.9998 1.4609 89.9998 1.51417V10.7578C89.9998 10.759 89.9997 10.7602 89.9997 10.7614V15.4602C89.9997 16.5255 89.1361 17.3891 88.0708 17.3891H85.7155C85.3433 17.3891 85.0242 17.1234 84.9567 16.7574L84.7032 15.3813C84.6923 15.322 84.7378 15.2674 84.7981 15.2674H87.4639C87.677 15.2674 87.8497 15.0946 87.8497 14.8816V11.7952L87.8501 11.7948L87.8497 9.76988L87.8498 9.76692V3.63592C87.8498 3.58266 87.8066 3.53948 87.7533 3.53948H77.3456ZM78.3742 5.07646C78.0551 5.18939 77.844 5.49766 77.8783 5.83441C78.1129 8.14095 79.1278 10.1751 79.1278 10.1751C79.1278 10.1751 78.0428 12.2507 77.5139 13.0557C77.4833 13.1024 77.4975 13.165 77.5454 13.1935L78.216 13.5919C78.5789 13.8075 79.0481 13.6906 79.2684 13.3306C79.7383 12.5624 79.7386 12.562 80.0428 12.0973C80.0626 12.067 80.0837 12.0348 80.1063 12.0003C80.3989 12.3155 80.5324 12.4544 80.6026 12.5259C80.92 12.8494 81.4276 12.8879 81.747 12.5662L82.2452 12.0644C82.281 12.0283 82.2826 11.9707 82.2496 11.932C81.6644 11.2458 81.1033 10.2302 81.1033 10.2302C81.1033 10.2302 82.1052 8.07532 82.3457 5.82764C82.3814 5.49415 82.1756 5.18725 81.8612 5.07055L80.9429 4.72973C80.8849 4.70822 80.822 4.74584 80.8127 4.80696C80.6399 5.94198 80.1132 7.68721 80.1132 7.68721C80.1132 7.68721 79.6568 5.93444 79.4891 4.80506C79.4801 4.74454 79.4182 4.70693 79.3606 4.72735L78.3742 5.07646ZM83.2512 5.08249C82.9439 5.19276 82.7359 5.48486 82.7615 5.81033C82.9328 7.98365 84.0065 10.1751 84.0065 10.1751C84.0065 10.1751 83.332 11.6253 81.4973 13.3675C81.455 13.4077 81.4568 13.4766 81.502 13.5135L82.2293 14.1061C82.5301 14.3513 82.9675 14.3358 83.2368 14.0564C84.2503 13.0048 84.9919 11.9611 84.9919 11.9611C84.9919 11.9611 85.3419 12.6344 85.9267 13.534C86.1805 13.9245 86.7234 13.9816 87.0656 13.6658L87.5723 13.1983C87.6079 13.1655 87.6137 13.1116 87.5865 13.0715C87.0209 12.2366 85.9636 10.1013 85.9636 10.1013C85.9636 10.1013 87.0274 8.27371 87.2722 5.91419C87.3074 5.57474 87.093 5.26411 86.7703 5.15306L85.7447 4.80011C85.6869 4.78022 85.6255 4.81827 85.6168 4.87877C85.4549 6.00906 84.9919 7.68721 84.9919 7.68721C84.9919 7.68721 84.5347 5.97517 84.3674 4.80638C84.3586 4.74543 84.2963 4.70744 84.2384 4.72824L83.2512 5.08249Z" fill="#EE2737"/>
</svg>
