<?xml version="1.0" encoding="UTF-8"?>
<svg width="434px" height="536px" viewBox="0 0 434 536" version="1.1" xmlns="http://www.w3.org/2000/svg" xmlns:xlink="http://www.w3.org/1999/xlink">
    <!-- Generator: Sketch 50 (54983) - http://www.bohemiancoding.com/sketch -->
    <title>Group 24</title>
    <desc>Created with Sketch.</desc>
    <defs></defs>
    <g id="Page-1" stroke="none" stroke-width="1" fill="none" fill-rule="evenodd">
        <g id="第三稿-copy" transform="translate(-504.000000, -4019.000000)" fill="#FFFFFF">
            <g id="Group-18" transform="translate(0.000000, 4019.000000)">
                <g id="Group-24" transform="translate(504.000000, 0.000000)">
                    <path d="M324.071429,93.0212642 L324.071429,109 L308,109 L308,60.248118 L308,49 L368,49 L368,65.06874 L352.02863,65.06874 L324.071429,93.0212642 Z" id="Combined-Shape-Copy-3" transform="translate(338.000000, 79.000000) scale(-1, 1) translate(-338.000000, -79.000000) "></path>
                    <path d="M82.0714286,93.0212642 L82.0714286,109 L66,109 L66,60.248118 L66,49 L126,49 L126,65.06874 L110.02863,65.06874 L82.0714286,93.0212642 Z" id="Combined-Shape-Copy-4"></path>
                    <rect id="Rectangle-4" x="78" y="0" width="278" height="49"></rect>
                    <rect id="Rectangle-4-Copy" x="368" y="0" width="66" height="536"></rect>
                    <rect id="Rectangle-4-Copy-2" x="0" y="0" width="66" height="536"></rect>
                </g>
            </g>
        </g>
    </g>
</svg>