<?xml version="1.0" encoding="utf-8"?>
<!-- Generator: Adobe Illustrator 22.0.1, SVG Export Plug-In . SVG Version: 6.00 Build 0)  -->
<svg version="1.1" id="图层_1" xmlns="http://www.w3.org/2000/svg" xmlns:xlink="http://www.w3.org/1999/xlink" x="0px" y="0px"
	 viewBox="0 0 75 75" style="enable-background:new 0 0 75 75;" xml:space="preserve">
<style type="text/css">
	.st0{fill:#9B9B9B;}
	.st1{filter:url(#Adobe_OpacityMaskFilter);}
	.st2{fill:#FFFFFF;}
	.st3{mask:url(#mask-2_1_);fill:#9B9B9B;}
	.st4{filter:url(#Adobe_OpacityMaskFilter_1_);}
	.st5{mask:url(#mask-2_2_);fill:#9B9B9B;}
	.st6{filter:url(#Adobe_OpacityMaskFilter_2_);}
	.st7{mask:url(#mask-2_3_);fill:#9B9B9B;}
	.st8{filter:url(#Adobe_OpacityMaskFilter_3_);}
	.st9{mask:url(#mask-2_4_);fill:#9B9B9B;}
	.st10{filter:url(#Adobe_OpacityMaskFilter_4_);}
	.st11{mask:url(#mask-4_1_);fill:#9B9B9B;}
	.st12{filter:url(#Adobe_OpacityMaskFilter_5_);}
	.st13{mask:url(#mask-4_2_);fill:#9B9B9B;}
	.st14{filter:url(#Adobe_OpacityMaskFilter_6_);}
	.st15{mask:url(#mask-4_3_);fill:#9B9B9B;}
	.st16{filter:url(#Adobe_OpacityMaskFilter_7_);}
	.st17{mask:url(#mask-4_4_);fill:#9B9B9B;}
	.st18{filter:url(#Adobe_OpacityMaskFilter_8_);}
	.st19{mask:url(#mask-4_5_);fill:#9B9B9B;}
	.st20{filter:url(#Adobe_OpacityMaskFilter_9_);}
	.st21{mask:url(#mask-4_6_);fill:#9B9B9B;}
	.st22{filter:url(#Adobe_OpacityMaskFilter_10_);}
	.st23{mask:url(#mask-4_7_);fill:#9B9B9B;}
	.st24{filter:url(#Adobe_OpacityMaskFilter_11_);}
	.st25{mask:url(#mask-4_8_);fill:#9B9B9B;}
	.st26{filter:url(#Adobe_OpacityMaskFilter_12_);}
	.st27{mask:url(#mask-4_9_);fill:#9B9B9B;}
	.st28{filter:url(#Adobe_OpacityMaskFilter_13_);}
	.st29{mask:url(#mask-4_10_);fill:#9B9B9B;}
	.st30{filter:url(#Adobe_OpacityMaskFilter_14_);}
	.st31{mask:url(#mask-4_11_);fill:#9B9B9B;}
	.st32{filter:url(#Adobe_OpacityMaskFilter_15_);}
	.st33{mask:url(#mask-4_12_);fill:#9B9B9B;}
	.st34{filter:url(#Adobe_OpacityMaskFilter_16_);}
	.st35{mask:url(#mask-4_13_);fill:#9B9B9B;}
	.st36{filter:url(#Adobe_OpacityMaskFilter_17_);}
	.st37{mask:url(#mask-4_14_);fill:#9B9B9B;}
	.st38{filter:url(#Adobe_OpacityMaskFilter_18_);}
	.st39{mask:url(#mask-4_15_);fill:#9B9B9B;}
	.st40{filter:url(#Adobe_OpacityMaskFilter_19_);}
	.st41{mask:url(#mask-4_16_);fill:#9B9B9B;}
	.st42{filter:url(#Adobe_OpacityMaskFilter_20_);}
	.st43{mask:url(#mask-4_17_);fill:#9B9B9B;}
	.st44{filter:url(#Adobe_OpacityMaskFilter_21_);}
	.st45{mask:url(#mask-4_18_);fill:#9B9B9B;}
	.st46{filter:url(#Adobe_OpacityMaskFilter_22_);}
	.st47{mask:url(#mask-4_19_);fill:#9B9B9B;}
	.st48{filter:url(#Adobe_OpacityMaskFilter_23_);}
	.st49{mask:url(#mask-4_20_);fill:#9B9B9B;}
	.st50{filter:url(#Adobe_OpacityMaskFilter_24_);}
	.st51{mask:url(#mask-4_21_);fill:#9B9B9B;}
	.st52{filter:url(#Adobe_OpacityMaskFilter_25_);}
	.st53{mask:url(#mask-4_22_);fill:#9B9B9B;}
	.st54{filter:url(#Adobe_OpacityMaskFilter_26_);}
	.st55{mask:url(#mask-4_23_);fill:#9B9B9B;}
	.st56{filter:url(#Adobe_OpacityMaskFilter_27_);}
	.st57{mask:url(#mask-4_24_);fill:#9B9B9B;}
	.st58{filter:url(#Adobe_OpacityMaskFilter_28_);}
	.st59{mask:url(#mask-4_25_);fill:#9B9B9B;}
	.st60{filter:url(#Adobe_OpacityMaskFilter_29_);}
	.st61{mask:url(#mask-4_26_);fill:#9B9B9B;}
	.st62{filter:url(#Adobe_OpacityMaskFilter_30_);}
	.st63{mask:url(#mask-4_27_);fill:#9B9B9B;}
	.st64{filter:url(#Adobe_OpacityMaskFilter_31_);}
	.st65{mask:url(#mask-4_28_);fill:#9B9B9B;}
	.st66{filter:url(#Adobe_OpacityMaskFilter_32_);}
	.st67{mask:url(#mask-4_29_);fill:#9B9B9B;}
	.st68{filter:url(#Adobe_OpacityMaskFilter_33_);}
	.st69{mask:url(#mask-4_30_);fill:#9B9B9B;}
	.st70{filter:url(#Adobe_OpacityMaskFilter_34_);}
	.st71{mask:url(#mask-4_31_);fill:#9B9B9B;}
	.st72{filter:url(#Adobe_OpacityMaskFilter_35_);}
	.st73{mask:url(#mask-4_32_);fill:#9B9B9B;}
	.st74{filter:url(#Adobe_OpacityMaskFilter_36_);}
	.st75{mask:url(#mask-4_33_);fill:#9B9B9B;}
	.st76{filter:url(#Adobe_OpacityMaskFilter_37_);}
	.st77{mask:url(#mask-4_34_);fill:#9B9B9B;}
	.st78{filter:url(#Adobe_OpacityMaskFilter_38_);}
	.st79{mask:url(#mask-4_35_);fill:#9B9B9B;}
	.st80{filter:url(#Adobe_OpacityMaskFilter_39_);}
	.st81{mask:url(#mask-4_36_);fill:#9B9B9B;}
	.st82{filter:url(#Adobe_OpacityMaskFilter_40_);}
	.st83{mask:url(#mask-4_37_);fill:#9B9B9B;}
	.st84{filter:url(#Adobe_OpacityMaskFilter_41_);}
	.st85{mask:url(#mask-4_38_);fill:#9B9B9B;}
	.st86{filter:url(#Adobe_OpacityMaskFilter_42_);}
	.st87{mask:url(#mask-4_39_);fill:#9B9B9B;}
	.st88{filter:url(#Adobe_OpacityMaskFilter_43_);}
	.st89{mask:url(#mask-4_40_);fill:#9B9B9B;}
	.st90{filter:url(#Adobe_OpacityMaskFilter_44_);}
	.st91{mask:url(#mask-4_41_);fill:#9B9B9B;}
	.st92{filter:url(#Adobe_OpacityMaskFilter_45_);}
	.st93{mask:url(#mask-4_42_);fill:#9B9B9B;}
	.st94{filter:url(#Adobe_OpacityMaskFilter_46_);}
	.st95{mask:url(#mask-4_43_);fill:#9B9B9B;}
	.st96{filter:url(#Adobe_OpacityMaskFilter_47_);}
	.st97{mask:url(#mask-4_44_);fill:#9B9B9B;}
	.st98{filter:url(#Adobe_OpacityMaskFilter_48_);}
	.st99{mask:url(#mask-4_45_);fill:#9B9B9B;}
</style>
<title>logo</title>
<desc>Created with Sketch.</desc>
<g id="Desktop-HD-Copy-4" transform="translate(-698.000000, -19.000000)">
	<g id="Header-Copy-5" transform="translate(5.000000, 0.000000)">
		<g id="logo" transform="translate(693.000000, 19.000000)">
			<path id="Fill-4" class="st0" d="M73,37.4C73,57,57,73,37.4,73C17.7,73,1.7,57,1.7,37.4c0-19.6,16-35.6,35.6-35.6
				C57,1.7,73,17.7,73,37.4 M37.4,1.4c-19.8,0-36,16.1-36,36c0,19.8,16.1,36,36,36c19.8,0,36-16.1,36-36
				C73.4,17.5,57.2,1.4,37.4,1.4"/>
			<g id="Clip-2">
			</g>
			<defs>
				<filter id="Adobe_OpacityMaskFilter" filterUnits="userSpaceOnUse" x="0" y="0" width="74.7" height="74.7">
					<feColorMatrix  type="matrix" values="1 0 0 0 0  0 1 0 0 0  0 0 1 0 0  0 0 0 1 0"/>
				</filter>
			</defs>
			<mask maskUnits="userSpaceOnUse" x="0" y="0" width="74.7" height="74.7" id="mask-2_1_">
				<g class="st1">
					<polygon id="path-1_1_" class="st2" points="37.4,0 74.7,0 74.7,74.7 37.4,74.7 0,74.7 0,0 					"/>
				</g>
			</mask>
			<path id="Fill-1" class="st3" d="M73.8,37.4c0,20.1-16.4,36.5-36.5,36.5c-20.1,0-36.5-16.4-36.5-36.5c0-20.1,16.4-36.5,36.5-36.5
				C57.5,0.9,73.8,17.3,73.8,37.4 M37.4,0C16.8,0,0,16.8,0,37.4C0,58,16.8,74.7,37.4,74.7C58,74.7,74.7,58,74.7,37.4
				C74.7,16.8,58,0,37.4,0"/>
			<defs>
				<filter id="Adobe_OpacityMaskFilter_1_" filterUnits="userSpaceOnUse" x="22.1" y="5.2" width="10.6" height="8.4">
					<feColorMatrix  type="matrix" values="1 0 0 0 0  0 1 0 0 0  0 0 1 0 0  0 0 0 1 0"/>
				</filter>
			</defs>
			<mask maskUnits="userSpaceOnUse" x="22.1" y="5.2" width="10.6" height="8.4" id="mask-2_2_">
				<g class="st4">
					<polygon id="path-1_2_" class="st2" points="37.4,0 74.7,0 74.7,74.7 37.4,74.7 0,74.7 0,0 					"/>
				</g>
			</mask>
			<path id="Fill-1_1_" class="st5" d="M26.3,5.3c-0.1,1.3,1.2,0.6,2,0.6c0.3,0,2.8-1,2.4,0c-0.2,0.6-1,0.4-1.6,0.5
				c-0.6,0.1-1.3,0.3-1.9,0.5c-0.5,0.3-0.1,0.6,0.3,0.5c0.4-0.1,0.8-0.1,1.2-0.1c1,0.1,2,0.3,2.8,0.9c0.4,0.3,1.6,1.5,0.9,1.8
				c-0.5,0.2-1.1-0.4-1.4-0.7c-0.5-0.5-0.9-0.9-1.5-1.1C28.3,8,27.1,8.2,26.1,9c-0.9,0.8-1.5,1.6-1.7,2.8c-0.1,0.5-0.3,2.2-1.1,1.6
				c-0.9-0.6,0.4-2.7,0.6-3c0.1-0.2,0.3-0.4,0.6-0.7c0.2-0.2,0.5-0.6,0.8-0.9c0.1-0.2,0.6-0.6,0.8-0.7c0.3-0.2,0.4-0.6-0.1-0.6
				c-0.5,0-0.7,0.3-1.3,0.6c-0.6,0.2-2.1,1.6-2.4,0.8c-0.4-1,1.9-1.4,2.5-1.7c0.1-0.1,0.3-0.1,0.5-0.2c0.1,0,0.3-0.2,0.3-0.2
				c0.1-0.2,0.2-0.4,0.2-0.5c-0.1-0.3-0.3-0.7-0.3-1C25.5,5.2,26,5.1,26.3,5.3z"/>
			<defs>
				<filter id="Adobe_OpacityMaskFilter_2_" filterUnits="userSpaceOnUse" x="20.8" y="33" width="12.1" height="18.1">
					<feColorMatrix  type="matrix" values="1 0 0 0 0  0 1 0 0 0  0 0 1 0 0  0 0 0 1 0"/>
				</filter>
			</defs>
			<mask maskUnits="userSpaceOnUse" x="20.8" y="33" width="12.1" height="18.1" id="mask-2_3_">
				<g class="st6">
					<polygon id="path-1_3_" class="st2" points="37.4,0 74.7,0 74.7,74.7 37.4,74.7 0,74.7 0,0 					"/>
				</g>
			</mask>
			<path id="Fill-3" class="st7" d="M24.3,46.6l-2.6-1.4l-0.9,1.5c0.6,0.4,0.9,1.1,1,1.8l4.7,2.5l1.4-2.5l-2.4-1.3l7.3-13.6
				c0-0.1,0-0.1,0-0.2L31.7,33c-0.1,0-0.1,0-0.2,0L24.3,46.6z"/>
			<defs>
				<filter id="Adobe_OpacityMaskFilter_3_" filterUnits="userSpaceOnUse" x="27.9" y="47.7" width="20.6" height="5.8">
					<feColorMatrix  type="matrix" values="1 0 0 0 0  0 1 0 0 0  0 0 1 0 0  0 0 0 1 0"/>
				</filter>
			</defs>
			<mask maskUnits="userSpaceOnUse" x="27.9" y="47.7" width="20.6" height="5.8" id="mask-2_4_">
				<g class="st8">
					<polygon id="path-1_4_" class="st2" points="37.4,0 74.7,0 74.7,74.7 37.4,74.7 0,74.7 0,0 					"/>
				</g>
			</mask>
			<path id="Fill-5" class="st9" d="M28.9,48.3L28.9,48.3c-0.2,0-0.3,0.1-0.3,0.3v3.9c0,0.2,0.2,0.4,0.4,0.4h18.5
				c0.2,0,0.4-0.2,0.4-0.4v-3.8c0-0.2-0.2-0.4-0.4-0.4H28.9z M28.7,47.7h19.2c0.4,0,0.7,0.3,0.7,0.7v4.4c0,0.4-0.3,0.7-0.7,0.7H28.7
				c-0.4,0-0.7-0.3-0.7-0.7v-4.4C27.9,48,28.3,47.7,28.7,47.7z"/>
			<g id="Clip-8">
			</g>
			<defs>
				<filter id="Adobe_OpacityMaskFilter_4_" filterUnits="userSpaceOnUse" x="27.4" y="25.9" width="6.5" height="1.4">
					<feColorMatrix  type="matrix" values="1 0 0 0 0  0 1 0 0 0  0 0 1 0 0  0 0 0 1 0"/>
				</filter>
			</defs>
			<mask maskUnits="userSpaceOnUse" x="27.4" y="25.9" width="6.5" height="1.4" id="mask-4_1_">
				<g class="st10">
					<polygon id="path-3_1_" class="st2" points="4.9,70 70.4,70 70.4,4.5 4.9,4.5 					"/>
				</g>
			</mask>
			<polygon id="Fill-7" class="st11" points="27.4,27.3 33.9,27.3 33.9,25.9 27.4,25.9 			"/>
			<defs>
				<filter id="Adobe_OpacityMaskFilter_5_" filterUnits="userSpaceOnUse" x="27.4" y="28" width="6.5" height="1.4">
					<feColorMatrix  type="matrix" values="1 0 0 0 0  0 1 0 0 0  0 0 1 0 0  0 0 0 1 0"/>
				</filter>
			</defs>
			<mask maskUnits="userSpaceOnUse" x="27.4" y="28" width="6.5" height="1.4" id="mask-4_2_">
				<g class="st12">
					<polygon id="path-3_2_" class="st2" points="4.9,70 70.4,70 70.4,4.5 4.9,4.5 					"/>
				</g>
			</mask>
			<polygon id="Fill-9" class="st13" points="27.4,29.4 33.9,29.4 33.9,28 27.4,28 			"/>
			<defs>
				<filter id="Adobe_OpacityMaskFilter_6_" filterUnits="userSpaceOnUse" x="27.4" y="30.2" width="6.5" height="1.4">
					<feColorMatrix  type="matrix" values="1 0 0 0 0  0 1 0 0 0  0 0 1 0 0  0 0 0 1 0"/>
				</filter>
			</defs>
			<mask maskUnits="userSpaceOnUse" x="27.4" y="30.2" width="6.5" height="1.4" id="mask-4_3_">
				<g class="st14">
					<polygon id="path-3_3_" class="st2" points="4.9,70 70.4,70 70.4,4.5 4.9,4.5 					"/>
				</g>
			</mask>
			<polygon id="Fill-10" class="st15" points="27.4,31.6 33.9,31.6 33.9,30.2 27.4,30.2 			"/>
			<defs>
				<filter id="Adobe_OpacityMaskFilter_7_" filterUnits="userSpaceOnUse" x="23.1" y="32.6" width="32.5" height="14.7">
					<feColorMatrix  type="matrix" values="1 0 0 0 0  0 1 0 0 0  0 0 1 0 0  0 0 0 1 0"/>
				</filter>
			</defs>
			<mask maskUnits="userSpaceOnUse" x="23.1" y="32.6" width="32.5" height="14.7" id="mask-4_4_">
				<g class="st16">
					<polygon id="path-3_4_" class="st2" points="4.9,70 70.4,70 70.4,4.5 4.9,4.5 					"/>
				</g>
			</mask>
			<path id="Fill-11" class="st17" d="M40.5,37.7c-0.2,0-0.4,0.2-0.4,0.4v0.4c0,0.2,0.2,0.4,0.4,0.4h3c0.2,0,0.4-0.2,0.4-0.4v-0.4
				c0-0.2-0.2-0.4-0.4-0.4H40.5z M34.8,39.8c-0.2,0-0.4,0.2-0.4,0.4v0.4c0,0.2,0.2,0.4,0.4,0.4h6.6c0.2,0,0.4-0.2,0.4-0.4v-0.4
				c0-0.2-0.2-0.4-0.4-0.4H34.8z M34.5,42.1c-0.2,0-0.4,0.2-0.4,0.4v0.4c0,0.2,0.2,0.4,0.4,0.4h7.2c0.2,0,0.4-0.2,0.4-0.4v-0.4
				c0-0.2-0.2-0.4-0.4-0.4H34.5z M32.6,44.4c-0.2,0-0.4,0.2-0.4,0.4v0.4c0,0.2,0.2,0.4,0.4,0.4h11c0.2,0,0.4-0.2,0.4-0.4v-0.4
				c0-0.2-0.2-0.4-0.4-0.4H32.6z M53,43.4v0.4c0,0.1-0.1,0.2-0.2,0.2h-0.4c-0.1,0-0.2-0.1-0.2-0.2v-0.4c-0.2,0.1-0.3,0.3-0.3,0.6
				v1.9c0,0.4,0.3,0.7,0.7,0.7h0.2c0.4,0,0.7-0.3,0.7-0.7V44C53.3,43.7,53.2,43.5,53,43.4z M31.8,37.7L31.8,37.7l2.3-4.4
				c0.1-0.1,0-0.2-0.1-0.2l-0.9-0.5h22.5v1.6c0-0.1,0,0.7-2,1c-0.2,0-0.4,0.1-0.6,0.1v1c0.6,0,1,0.5,1,1.1V40c0,0.6-0.4,1-1,1.1v1.4
				c0.6,0,1,0.5,1,1.1v2.5c0,0.6-0.5,1.1-1.1,1.1h-0.6c-0.6,0-1.1-0.5-1.1-1.1v-2.5c0-0.6,0.4-1,1-1.1v-1.4c-0.6-0.1-1-0.5-1-1.1
				v-2.6c0-0.6,0.4-1,1-1.1v-0.8c-1.6,0.3-3.1,0.7-4.3,2.1h-1.4c0,0-0.6,0.3-1.3,0.8c-0.4,0.4-0.9,0.9-1.1,1.5h-0.5
				c0,0-0.2,0.1-0.5,0.4c0,0,0,0,0,0l0,0c0,0,0,0,0,0c0,0,0,0,0,0h0c0,0,0,0,0,0v0l0,0v0c0,0,0,0,0,0c0,0,0,0,0,0c0,0,0,0,0,0h0
				c0,0,0,0,0,0c-0.2,0.2-0.3,0.5-0.2,0.8c0.1,0.7,0.3,0.9,1,1.4c0.7,0.5,1.9,1.8,2.3,2.4c0.4,0.6,0.5,1.4,0.1,1.6
				c-0.1,0-0.1,0.1-0.2,0.1h-7.9v0h-7.8c-0.5,0-0.5-1-0.1-1.6c0.5-0.7,1.7-1.9,2.3-2.4c0.7-0.5,0.9-0.7,1-1.4
				c0.1-0.7-0.8-1.3-0.8-1.3h-0.5c-0.2-0.3-0.5-0.9-0.9-1.2h6.4c0.2,0,0.4-0.2,0.4-0.4v-0.4c0-0.2-0.2-0.4-0.4-0.4H31.8z M26,34.1
				c-0.2,0-0.4,0-0.6,0.2c-0.4,0.6-0.3,2.1-0.3,2.7h-1.7l-0.4-0.4v-2.8c0.4-0.7,1.4-1.1,3.3-1.1l4.1,0c0.1,0,0.2,0.1,0.1,0.2
				L28.4,37L26,37V34.1z M52.4,39.7h0.4c0.1,0,0.2,0.1,0.2,0.2v0.5c0.2-0.1,0.3-0.3,0.3-0.6v-1.9c0-0.3-0.1-0.5-0.3-0.6v0.4
				c0,0.1-0.1,0.2-0.2,0.2h-0.4c-0.1,0-0.2-0.1-0.2-0.2v-0.4c-0.2,0.1-0.3,0.3-0.3,0.6v1.9c0,0.3,0.1,0.5,0.3,0.6v-0.5
				C52.2,39.7,52.3,39.7,52.4,39.7z"/>
			<defs>
				<filter id="Adobe_OpacityMaskFilter_8_" filterUnits="userSpaceOnUse" x="34.4" y="25.9" width="1.1" height="1.4">
					<feColorMatrix  type="matrix" values="1 0 0 0 0  0 1 0 0 0  0 0 1 0 0  0 0 0 1 0"/>
				</filter>
			</defs>
			<mask maskUnits="userSpaceOnUse" x="34.4" y="25.9" width="1.1" height="1.4" id="mask-4_5_">
				<g class="st18">
					<polygon id="path-3_5_" class="st2" points="4.9,70 70.4,70 70.4,4.5 4.9,4.5 					"/>
				</g>
			</mask>
			<polygon id="Fill-12" class="st19" points="34.4,27.3 35.5,27.3 35.5,25.9 34.4,25.9 			"/>
			<defs>
				<filter id="Adobe_OpacityMaskFilter_9_" filterUnits="userSpaceOnUse" x="28.2" y="22.8" width="6.6" height="3">
					<feColorMatrix  type="matrix" values="1 0 0 0 0  0 1 0 0 0  0 0 1 0 0  0 0 0 1 0"/>
				</filter>
			</defs>
			<mask maskUnits="userSpaceOnUse" x="28.2" y="22.8" width="6.6" height="3" id="mask-4_6_">
				<g class="st20">
					<polygon id="path-3_6_" class="st2" points="4.9,70 70.4,70 70.4,4.5 4.9,4.5 					"/>
				</g>
			</mask>
			<path id="Fill-13" class="st21" d="M28.2,24.6c2-0.1,4.1-0.8,6-1.7l0.6,1.3c-2.1,1-4.4,1.7-6.3,1.8L28.2,24.6z"/>
			<defs>
				<filter id="Adobe_OpacityMaskFilter_10_" filterUnits="userSpaceOnUse" x="34.7" y="22.1" width="1.6" height="1.8">
					<feColorMatrix  type="matrix" values="1 0 0 0 0  0 1 0 0 0  0 0 1 0 0  0 0 0 1 0"/>
				</filter>
			</defs>
			<mask maskUnits="userSpaceOnUse" x="34.7" y="22.1" width="1.6" height="1.8" id="mask-4_7_">
				<g class="st22">
					<polygon id="path-3_7_" class="st2" points="4.9,70 70.4,70 70.4,4.5 4.9,4.5 					"/>
				</g>
			</mask>
			<polygon id="Fill-14" class="st23" points="35.7,22.1 34.7,22.6 35.3,23.9 36.3,23.4 			"/>
			<defs>
				<filter id="Adobe_OpacityMaskFilter_11_" filterUnits="userSpaceOnUse" x="34.4" y="28" width="1.1" height="1.4">
					<feColorMatrix  type="matrix" values="1 0 0 0 0  0 1 0 0 0  0 0 1 0 0  0 0 0 1 0"/>
				</filter>
			</defs>
			<mask maskUnits="userSpaceOnUse" x="34.4" y="28" width="1.1" height="1.4" id="mask-4_8_">
				<g class="st24">
					<polygon id="path-3_8_" class="st2" points="4.9,70 70.4,70 70.4,4.5 4.9,4.5 					"/>
				</g>
			</mask>
			<polygon id="Fill-15" class="st25" points="34.4,29.4 35.5,29.4 35.5,28 34.4,28 			"/>
			<defs>
				<filter id="Adobe_OpacityMaskFilter_12_" filterUnits="userSpaceOnUse" x="34.4" y="30.2" width="1.1" height="1.4">
					<feColorMatrix  type="matrix" values="1 0 0 0 0  0 1 0 0 0  0 0 1 0 0  0 0 0 1 0"/>
				</filter>
			</defs>
			<mask maskUnits="userSpaceOnUse" x="34.4" y="30.2" width="1.1" height="1.4" id="mask-4_9_">
				<g class="st26">
					<polygon id="path-3_9_" class="st2" points="4.9,70 70.4,70 70.4,4.5 4.9,4.5 					"/>
				</g>
			</mask>
			<polygon id="Fill-16" class="st27" points="34.4,31.6 35.5,31.6 35.5,30.2 34.4,30.2 			"/>
			<defs>
				<filter id="Adobe_OpacityMaskFilter_13_" filterUnits="userSpaceOnUse" x="42.3" y="22.6" width="6.4" height="9">
					<feColorMatrix  type="matrix" values="1 0 0 0 0  0 1 0 0 0  0 0 1 0 0  0 0 0 1 0"/>
				</filter>
			</defs>
			<mask maskUnits="userSpaceOnUse" x="42.3" y="22.6" width="6.4" height="9" id="mask-4_10_">
				<g class="st28">
					<polygon id="path-3_10_" class="st2" points="4.9,70 70.4,70 70.4,4.5 4.9,4.5 					"/>
				</g>
			</mask>
			<path id="Fill-17" class="st29" d="M44.2,25.8l0.3,0.4l0.9-0.5l-0.2-0.4L44.2,25.8z M43.6,24.9l0.2,0.4l0.9-0.5l-0.2-0.4
				L43.6,24.9z M42.3,23.8l2.1-1.1l4.3,7.9l-2.1,1.1L42.3,23.8z"/>
			<defs>
				<filter id="Adobe_OpacityMaskFilter_14_" filterUnits="userSpaceOnUse" x="36.3" y="20.7" width="6.1" height="10.9">
					<feColorMatrix  type="matrix" values="1 0 0 0 0  0 1 0 0 0  0 0 1 0 0  0 0 0 1 0"/>
				</filter>
			</defs>
			<mask maskUnits="userSpaceOnUse" x="36.3" y="20.7" width="6.1" height="10.9" id="mask-4_11_">
				<g class="st30">
					<polygon id="path-3_11_" class="st2" points="4.9,70 70.4,70 70.4,4.5 4.9,4.5 					"/>
				</g>
			</mask>
			<path id="Fill-18" class="st31" d="M40.6,25.9h1.1v-0.5h-1.1V25.9z M40.6,24.8h1.1v-0.5h-1.1V24.8z M40.6,23.7h1.1v-0.5h-1.1
				V23.7z M37.2,25.9h1.1v-0.5h-1.1V25.9z M37.2,24.8h1.1v-0.5h-1.1V24.8z M37.2,23.7h1.1v-0.5h-1.1V23.7z M37.2,22.6h1.1v-0.5h-1.1
				V22.6z M36.3,31.6h2.8V20.7h-2.8V31.6z M39.9,31.6h2.5v-10h-2.5V31.6z"/>
			<defs>
				<filter id="Adobe_OpacityMaskFilter_15_" filterUnits="userSpaceOnUse" x="11.7" y="11.5" width="51.9" height="51.9">
					<feColorMatrix  type="matrix" values="1 0 0 0 0  0 1 0 0 0  0 0 1 0 0  0 0 0 1 0"/>
				</filter>
			</defs>
			<mask maskUnits="userSpaceOnUse" x="11.7" y="11.5" width="51.9" height="51.9" id="mask-4_12_">
				<g class="st32">
					<polygon id="path-3_12_" class="st2" points="4.9,70 70.4,70 70.4,4.5 4.9,4.5 					"/>
				</g>
			</mask>
			<path id="Fill-19" class="st33" d="M63.5,36.8l-2-0.3c-0.1,0-0.1,0-0.2-0.1c0-0.3,0-0.7-0.1-1c0-0.1,0.1-0.1,0.2-0.1l2-0.5
				c0,0,0.1,0,0.1-0.1c0-0.2,0-0.4-0.1-0.6v0v0c0-0.2-0.1-0.4-0.1-0.6c0-0.1-0.1-0.1-0.1-0.1h-2c-0.1,0-0.1,0-0.2-0.1
				c-0.1-0.3-0.1-0.6-0.2-1c0-0.1,0.1-0.1,0.1-0.1l1.9-0.8c0,0,0.1,0,0-0.1c0-0.2-0.1-0.4-0.1-0.6v0v0c-0.1-0.2-0.1-0.4-0.2-0.6
				c0-0.1-0.1-0.1-0.1-0.1l-2,0.3c-0.1,0-0.1,0-0.2-0.1c-0.1-0.3-0.2-0.6-0.3-0.9c0-0.1,0.1-0.1,0.1-0.2l1.8-1c0,0,0.1,0,0-0.1
				c-0.1-0.2-0.1-0.4-0.2-0.6l0,0v0c-0.1-0.2-0.2-0.4-0.2-0.6c0-0.1-0.1-0.1-0.1-0.1l-2,0.5c-0.1,0-0.1,0-0.2,0
				c-0.1-0.3-0.3-0.6-0.4-0.8c0-0.1,0-0.1,0.1-0.2l1.6-1.2c0,0,0.1-0.1,0-0.1c-0.1-0.2-0.2-0.3-0.3-0.5c0,0,0,0,0,0v0
				c-0.1-0.2-0.2-0.4-0.3-0.5c0-0.1-0.1-0.1-0.1,0l-1.9,0.8c-0.1,0-0.1,0-0.2,0c-0.2-0.3-0.3-0.5-0.5-0.8c0-0.1,0-0.2,0.1-0.2
				l1.4-1.5c0,0,0.1-0.1,0-0.1c-0.1-0.1-0.2-0.3-0.4-0.5h0v0h0c-0.1-0.2-0.3-0.3-0.4-0.5c-0.1-0.1-0.1,0-0.1,0l-1.8,1
				c-0.1,0.1-0.2,0.1-0.2,0c-0.2-0.2-0.4-0.5-0.6-0.7c0-0.1,0-0.2,0-0.2l1.3-1.6c0,0,0-0.1,0-0.1c-0.1-0.1-0.3-0.3-0.4-0.4v0h0v0h0
				c-0.1-0.2-0.3-0.3-0.4-0.4c-0.1-0.1-0.1,0-0.1,0l-1.6,1.3c-0.1,0.1-0.1,0.1-0.2,0c-0.2-0.2-0.5-0.4-0.7-0.6c0-0.1,0-0.2,0-0.2
				l1-1.8c0,0,0-0.1,0-0.1c-0.1-0.1-0.3-0.2-0.5-0.4v0h0v0c-0.2-0.1-0.3-0.2-0.5-0.4c-0.1,0-0.1,0-0.1,0L51.4,18
				c-0.1,0.1-0.1,0.1-0.2,0.1c-0.3-0.2-0.5-0.4-0.8-0.5c0-0.1-0.1-0.1,0-0.2l0.8-1.9c0,0,0-0.1,0-0.1c-0.1-0.1-0.3-0.2-0.5-0.3h0
				c0,0,0,0,0,0c-0.2-0.1-0.4-0.2-0.5-0.3c-0.1,0-0.1,0-0.1,0l-1.2,1.6c-0.1,0.1-0.1,0.1-0.2,0.1c-0.3-0.1-0.6-0.3-0.8-0.4
				c-0.1-0.1-0.1-0.1,0-0.2l0.5-2c0,0,0-0.1-0.1-0.1c-0.2-0.1-0.3-0.1-0.6-0.2h0h0c-0.2-0.1-0.4-0.2-0.6-0.2c-0.1,0-0.1,0-0.1,0
				l-1,1.8c0,0.1-0.1,0.1-0.2,0.1c-0.3-0.1-0.6-0.2-0.9-0.3c-0.1-0.1-0.1-0.1-0.1-0.2l0.3-2c0,0,0-0.1-0.1-0.1
				c-0.2-0.1-0.4-0.1-0.6-0.2v0h0h0c-0.2-0.1-0.4-0.1-0.6-0.1c-0.1,0-0.1,0-0.1,0.1l-0.8,1.9c0,0.1-0.1,0.1-0.1,0.1
				c-0.3-0.1-0.6-0.1-1-0.2c-0.1,0-0.1-0.1-0.1-0.2v-2c0,0,0-0.1-0.1-0.1c-0.2,0-0.4-0.1-0.6-0.1h0h0c-0.2,0-0.4-0.1-0.6-0.1
				c-0.1,0-0.1,0-0.1,0.1l-0.5,2c0,0.1-0.1,0.1-0.1,0.2c-0.3,0-0.6-0.1-1-0.1c-0.1,0-0.1-0.1-0.1-0.2l-0.3-2c0,0,0-0.1-0.1-0.1
				c-0.1,0-0.2,0-0.3,0h0h0h0h0h0h0h0h0h0h0h0h0h0h0h0h0h0h0h0h0h0h0h0h0h0h0h0h0h0h0h0h0h0h0h0h0h0h-0.1c-0.1,0-0.2,0-0.3,0
				c-0.1,0-0.1,0-0.1,0.1l-0.3,2c0,0.1,0,0.1-0.1,0.2c-0.3,0-0.6,0-1,0.1c-0.1,0-0.1-0.1-0.1-0.2l-0.5-2c0,0,0-0.1-0.1-0.1
				c-0.2,0-0.4,0-0.6,0.1h0h0c-0.2,0-0.4,0.1-0.6,0.1c-0.1,0-0.1,0.1-0.1,0.1v2c0,0.1,0,0.1-0.1,0.2c-0.3,0.1-0.6,0.1-1,0.2
				c-0.1,0-0.1-0.1-0.1-0.1l-0.8-1.9c0,0,0-0.1-0.1-0.1c-0.2,0-0.4,0.1-0.6,0.1h0c0,0,0,0,0,0c-0.2,0.1-0.4,0.1-0.6,0.2
				c-0.1,0-0.1,0.1-0.1,0.1l0.3,2c0,0.1,0,0.1-0.1,0.2c-0.3,0.1-0.6,0.2-0.9,0.3c-0.1,0-0.1-0.1-0.2-0.1l-1-1.8c0,0,0-0.1-0.1,0
				c-0.2,0.1-0.3,0.1-0.6,0.2h0h0c-0.2,0.1-0.4,0.2-0.5,0.2c-0.1,0-0.1,0.1-0.1,0.1l0.5,2c0,0.1,0,0.1,0,0.2
				c-0.3,0.1-0.6,0.3-0.9,0.4c-0.1,0-0.1,0-0.2-0.1l-1.2-1.6c0,0-0.1-0.1-0.1,0c-0.1,0.1-0.3,0.2-0.5,0.3v0h0h0
				c-0.2,0.1-0.4,0.2-0.5,0.3c-0.1,0,0,0.1,0,0.1l0.8,1.9c0,0.1,0,0.2,0,0.2c-0.2,0.2-0.5,0.3-0.8,0.5c-0.1,0-0.2,0-0.2-0.1
				l-1.4-1.5c0,0-0.1-0.1-0.1,0c-0.1,0.1-0.3,0.2-0.5,0.4l0,0h0v0c-0.2,0.1-0.3,0.3-0.5,0.4c-0.1,0,0,0.1,0,0.1l1,1.8
				c0,0.1,0.1,0.1,0,0.2c-0.2,0.2-0.5,0.4-0.7,0.6c-0.1,0-0.2,0-0.2,0l-1.6-1.3c0,0-0.1,0-0.1,0c-0.1,0.1-0.3,0.2-0.4,0.4l0,0
				c0,0,0,0,0,0c-0.1,0.1-0.3,0.3-0.4,0.4c-0.1,0.1,0,0.1,0,0.1l1.3,1.6c0.1,0.1,0.1,0.1,0,0.2c-0.2,0.2-0.4,0.5-0.6,0.7
				c-0.1,0-0.2,0-0.2,0l-1.8-1c0,0-0.1,0-0.1,0c-0.1,0.1-0.2,0.3-0.4,0.5h0v0c-0.1,0.2-0.3,0.3-0.4,0.5c-0.1,0.1,0,0.1,0,0.1
				l1.5,1.5c0.1,0.1,0.1,0.1,0.1,0.2c-0.2,0.2-0.4,0.5-0.5,0.8c-0.1,0-0.1,0.1-0.2,0l-1.9-0.8c0,0-0.1,0-0.1,0
				c-0.1,0.1-0.2,0.3-0.3,0.5h0v0v0C15,24.7,15,24.9,14.9,25c0,0.1,0,0.1,0,0.1l1.6,1.2c0.1,0,0.1,0.1,0.1,0.2
				c-0.1,0.3-0.3,0.6-0.4,0.8c-0.1,0.1-0.1,0.1-0.2,0l-2-0.5c0,0-0.1,0-0.1,0.1c-0.1,0.2-0.1,0.3-0.2,0.6h0v0v0
				c-0.1,0.2-0.2,0.4-0.2,0.6c0,0.1,0,0.1,0,0.1l1.8,1c0.1,0,0.1,0.1,0.1,0.2c-0.1,0.3-0.2,0.6-0.3,0.9c-0.1,0.1-0.1,0.1-0.2,0.1
				l-2-0.3c0,0-0.1,0-0.1,0.1c-0.1,0.2-0.1,0.4-0.2,0.6h0v0v0c-0.1,0.2-0.1,0.4-0.1,0.6c0,0.1,0,0.1,0.1,0.1l1.9,0.8
				c0.1,0,0.1,0.1,0.1,0.1c-0.1,0.3-0.1,0.6-0.2,1c-0.1,0.1-0.1,0.1-0.2,0.1h-2c0,0-0.1,0-0.1,0.1c0,0.2-0.1,0.4-0.1,0.6v0v0
				c0,0.2-0.1,0.4-0.1,0.6c0,0.1,0,0.1,0.1,0.1l2,0.5c0.1,0,0.1,0.1,0.2,0.1c0,0.3-0.1,0.6-0.1,1c0,0.1-0.1,0.1-0.2,0.1l-2,0.3
				c0,0-0.1,0-0.1,0.1c0,0.2,0,0.4,0,0.6v0v0v0c0,0.2,0,0.4,0,0.6c0,0.1,0,0.1,0.1,0.1l2,0.3c0.1,0,0.1,0,0.2,0.1c0,0.3,0,0.6,0.1,1
				c0,0.1-0.1,0.1-0.2,0.1l-2,0.5c0,0-0.1,0-0.1,0.1c0,0.2,0,0.4,0.1,0.6v0v0v0c0,0.2,0.1,0.4,0.1,0.6c0,0.1,0.1,0.1,0.1,0.1h2
				c0.1,0,0.1,0,0.2,0.1c0.1,0.3,0.1,0.6,0.2,1c0,0.1-0.1,0.1-0.1,0.1l-1.9,0.8c0,0-0.1,0-0.1,0.1c0,0.2,0.1,0.4,0.1,0.6v0v0h0
				c0.1,0.2,0.1,0.4,0.2,0.6c0,0.1,0.1,0.1,0.1,0.1l2-0.3c0.1,0,0.1,0,0.2,0.1c0.1,0.3,0.2,0.6,0.3,0.9c0,0.1-0.1,0.1-0.1,0.2
				l-1.8,1c0,0-0.1,0,0,0.1c0.1,0.2,0.1,0.4,0.2,0.6v0v0c0.1,0.2,0.2,0.4,0.2,0.6c0,0.1,0.1,0.1,0.1,0l2-0.5c0.1,0,0.1,0,0.2,0
				c0.1,0.3,0.3,0.6,0.4,0.8c0,0.1,0,0.1-0.1,0.2l-1.6,1.2c0,0-0.1,0.1,0,0.1c0.1,0.2,0.2,0.3,0.3,0.5c0,0,0,0,0,0v0h0
				c0.1,0.2,0.2,0.4,0.3,0.5c0,0.1,0.1,0.1,0.1,0l1.9-0.8c0.1,0,0.2,0,0.2,0c0.2,0.3,0.3,0.5,0.5,0.8c0,0.1,0,0.2-0.1,0.2l-1.5,1.5
				c0,0-0.1,0,0,0.1c0.1,0.1,0.2,0.3,0.3,0.5h0v0h0c0.1,0.2,0.3,0.3,0.4,0.5c0,0.1,0.1,0,0.1,0l1.8-1c0.1-0.1,0.1-0.1,0.2,0
				c0.2,0.2,0.4,0.5,0.6,0.7c0,0.1,0,0.2,0,0.2l-1.3,1.6c0,0,0,0.1,0,0.1c0.1,0.1,0.2,0.3,0.4,0.4c0,0,0,0,0,0v0h0
				c0.2,0.2,0.3,0.3,0.4,0.4c0.1,0.1,0.1,0,0.1,0l1.6-1.3c0.1-0.1,0.1-0.1,0.2,0c0.2,0.2,0.5,0.4,0.7,0.6c0,0.1,0,0.2,0,0.2l-1,1.8
				c0,0,0,0.1,0,0.1c0.1,0.1,0.3,0.2,0.5,0.4v0h0v0c0.2,0.1,0.3,0.2,0.5,0.4c0.1,0,0.1,0,0.1,0l1.5-1.5c0.1-0.1,0.1-0.1,0.2-0.1
				c0.2,0.2,0.5,0.4,0.8,0.5c0,0.1,0.1,0.1,0,0.2l-0.8,1.9c0,0,0,0.1,0,0.1c0.1,0.1,0.3,0.2,0.5,0.3h0c0,0,0,0,0,0
				c0.2,0.1,0.4,0.2,0.5,0.3c0.1,0,0.1,0,0.1,0l1.2-1.6c0.1-0.1,0.1-0.1,0.2-0.1c0.3,0.1,0.6,0.3,0.8,0.4c0.1,0.1,0.1,0.1,0,0.2
				l-0.5,2c0,0,0,0.1,0.1,0.1c0.2,0.1,0.3,0.1,0.5,0.2h0c0,0,0,0,0,0c0.2,0.1,0.4,0.2,0.6,0.2c0.1,0,0.1,0,0.1,0l1-1.8
				c0-0.1,0.1-0.1,0.2-0.1c0.3,0.1,0.6,0.2,0.9,0.3c0.1,0.1,0.1,0.1,0.1,0.2l-0.3,2c0,0,0,0.1,0.1,0.1c0.2,0.1,0.4,0.1,0.6,0.2h0h0
				c0.2,0.1,0.4,0.1,0.6,0.1c0.1,0,0.1,0,0.1,0l0.8-1.9c0-0.1,0.1-0.1,0.1-0.1c0.3,0.1,0.6,0.1,1,0.2c0.1,0,0.1,0.1,0.1,0.2v2
				c0,0,0,0.1,0.1,0.1c0.2,0,0.4,0.1,0.6,0.1h0h0h0c0.2,0,0.4,0.1,0.6,0.1c0.1,0,0.1,0,0.1-0.1l0.5-2c0-0.1,0.1-0.1,0.1-0.2
				c0.3,0,0.6,0,1,0.1c0.1,0.1,0.1,0.1,0.1,0.2l0.3,2c0,0,0,0.1,0.1,0.1h0.4h0h0h0h0h0h0h0h0h0h0h0h0h0h0h0h0h0h0h0h0h0h0h0h0h0h0h0
				h0h0h0h0h0h0h0h0h0h0h0.2h0h0h0.1c0.1,0,0.1-0.1,0.1-0.1l0.3-2c0-0.1,0-0.1,0.1-0.2c0.3,0,0.7,0,1-0.1c0.1,0,0.1,0.1,0.1,0.2
				l0.5,2c0,0,0,0.1,0.1,0.1c0.2,0,0.4,0,0.6-0.1h0h0c0.2,0,0.4-0.1,0.6-0.1c0.1,0,0.1-0.1,0.1-0.1v-2c0-0.1,0-0.1,0.1-0.2
				c0.3-0.1,0.6-0.1,1-0.2c0.1,0,0.1,0.1,0.1,0.1l0.8,1.9c0,0,0,0.1,0.1,0c0.2,0,0.4-0.1,0.6-0.1h0h0c0.2-0.1,0.4-0.1,0.6-0.2
				c0.1,0,0.1-0.1,0.1-0.1l-0.3-2c0-0.1,0-0.1,0.1-0.2c0.3-0.1,0.6-0.2,0.9-0.3c0.1,0,0.1,0.1,0.2,0.1l1,1.8c0,0,0.1,0.1,0.1,0
				c0.2-0.1,0.3-0.1,0.6-0.2v0h0c0.2-0.1,0.4-0.2,0.6-0.2c0.1,0,0.1-0.1,0.1-0.1l-0.5-2c0-0.1,0-0.1,0-0.2c0.3-0.1,0.6-0.3,0.9-0.4
				c0.1,0,0.1,0,0.2,0.1l1.3,1.6c0,0,0.1,0.1,0.1,0c0.2-0.1,0.3-0.2,0.5-0.3v0h0c0.2-0.1,0.4-0.2,0.5-0.3c0.1,0,0.1-0.1,0-0.1
				l-0.8-1.9c0-0.1,0-0.2,0-0.2c0.3-0.2,0.5-0.3,0.8-0.5c0.1,0,0.2,0,0.2,0.1l1.4,1.5c0,0,0.1,0.1,0.1,0c0.1-0.1,0.3-0.2,0.5-0.4v0
				h0c0,0,0,0,0,0c0.2-0.1,0.3-0.3,0.5-0.4c0.1-0.1,0-0.1,0-0.1l-1-1.8c-0.1-0.1-0.1-0.1,0-0.2c0.2-0.2,0.5-0.4,0.7-0.6
				c0.1,0,0.2,0,0.2,0l1.6,1.3c0,0,0.1,0,0.1,0c0.1-0.1,0.3-0.3,0.4-0.4v0h0v0c0.2-0.1,0.3-0.3,0.4-0.4c0-0.1,0-0.1,0-0.1l-1.2-1.6
				c-0.1-0.1-0.1-0.1-0.1-0.2c0.2-0.2,0.4-0.5,0.6-0.7c0.1,0,0.2,0,0.2,0l1.8,1c0,0,0.1,0,0.1,0c0.1-0.1,0.2-0.3,0.4-0.5v0h0
				c0.1-0.2,0.3-0.3,0.4-0.5c0-0.1,0-0.1,0-0.1l-1.4-1.5c-0.1-0.1-0.1-0.1-0.1-0.2c0.2-0.2,0.3-0.5,0.5-0.8c0.1,0,0.1-0.1,0.2,0
				l1.9,0.8c0,0,0.1,0,0.1,0c0.1-0.1,0.2-0.3,0.3-0.5v0h0v0c0.1-0.2,0.2-0.4,0.3-0.5c0-0.1,0-0.1,0-0.1l-1.6-1.2
				c-0.1-0.1-0.1-0.1-0.1-0.2c0.1-0.3,0.3-0.6,0.4-0.8c0.1-0.1,0.1-0.1,0.2,0l2,0.5c0,0,0.1,0,0.1,0c0.1-0.2,0.2-0.3,0.2-0.6v0l0,0
				c0.1-0.2,0.2-0.4,0.2-0.6c0-0.1,0-0.1,0-0.1l-1.8-1c-0.1,0-0.1-0.1-0.1-0.2c0.1-0.3,0.2-0.6,0.3-0.9c0.1-0.1,0.1-0.1,0.2-0.1
				l2,0.3c0,0,0.1,0,0.1-0.1c0-0.2,0.1-0.4,0.2-0.6v0v0c0.1-0.2,0.1-0.4,0.1-0.6c0-0.1,0-0.1,0-0.1l-1.9-0.8c-0.1,0-0.1-0.1-0.1-0.1
				c0.1-0.3,0.1-0.6,0.2-1c0-0.1,0.1-0.1,0.2-0.1h2c0,0,0.1,0,0.1-0.1c0-0.2,0.1-0.4,0.1-0.6v0v0v0c0-0.2,0.1-0.4,0.1-0.6
				c0-0.1,0-0.1-0.1-0.1l-2-0.5c-0.1,0-0.1-0.1-0.2-0.1c0-0.3,0-0.6,0.1-1c0.1-0.1,0.1-0.1,0.2-0.1l2-0.3c0,0,0.1,0,0.1-0.1v-0.6v0
				v0v0L63.5,36.8C63.6,36.8,63.6,36.8,63.5,36.8 M37.6,58.7c-11.7,0-21.2-9.5-21.2-21.2c0-11.7,9.5-21.3,21.2-21.3
				c11.7,0,21.3,9.5,21.3,21.3C58.9,49.2,49.4,58.7,37.6,58.7"/>
			<defs>
				<filter id="Adobe_OpacityMaskFilter_16_" filterUnits="userSpaceOnUse" x="32.6" y="49.1" width="4" height="3">
					<feColorMatrix  type="matrix" values="1 0 0 0 0  0 1 0 0 0  0 0 1 0 0  0 0 0 1 0"/>
				</filter>
			</defs>
			<mask maskUnits="userSpaceOnUse" x="32.6" y="49.1" width="4" height="3" id="mask-4_13_">
				<g class="st34">
					<polygon id="path-3_13_" class="st2" points="4.9,70 70.4,70 70.4,4.5 4.9,4.5 					"/>
				</g>
			</mask>
			<path id="Fill-20" class="st35" d="M36.3,50.5L36.3,50.5L36.3,50.5L36.3,50.5L36.3,50.5c0.1-0.1,0.2-0.3,0.2-0.5v-0.6
				c0-0.2-0.2-0.4-0.5-0.4h-3.1c-0.2,0-0.4,0.2-0.4,0.4v0.6c0,0.2,0.1,0.3,0.2,0.4l0,0l0.1,0l-0.1,0l0,0c-0.2,0.1-0.3,0.2-0.3,0.4
				v0.6c0,0.2,0.2,0.4,0.4,0.4h3.2c0.2,0,0.4-0.2,0.4-0.4V51C36.6,50.8,36.5,50.6,36.3,50.5z M33.5,49.8c0-0.1,0.1-0.2,0.2-0.2h1.8
				c0.1,0,0.2,0.1,0.2,0.2v0.4c0,0.1-0.1,0.2-0.2,0.2h-1.8c-0.1,0-0.2-0.1-0.2-0.2V49.8z M35.7,51.4c0,0.1-0.1,0.2-0.2,0.2h-1.9
				c-0.1,0-0.2-0.1-0.2-0.2V51c0-0.1,0.1-0.2,0.2-0.2h1.9c0.1,0,0.2,0.1,0.2,0.2V51.4z"/>
			<defs>
				<filter id="Adobe_OpacityMaskFilter_17_" filterUnits="userSpaceOnUse" x="29.5" y="49.1" width="1.9" height="3">
					<feColorMatrix  type="matrix" values="1 0 0 0 0  0 1 0 0 0  0 0 1 0 0  0 0 0 1 0"/>
				</filter>
			</defs>
			<mask maskUnits="userSpaceOnUse" x="29.5" y="49.1" width="1.9" height="3" id="mask-4_14_">
				<g class="st36">
					<polygon id="path-3_14_" class="st2" points="4.9,70 70.4,70 70.4,4.5 4.9,4.5 					"/>
				</g>
			</mask>
			<path id="Fill-21" class="st37" d="M31.4,52.1h-0.9v-2.2c0-0.1-0.1-0.1-0.1-0.1c0,0-0.1,0-0.2,0l-0.7,0.2v-0.5l0.7-0.2
				c0,0,0.1,0,0.1,0c0.1,0,0.3-0.1,0.4-0.1h0.6c0.1,0,0.1,0,0.1,0.1V52.1z"/>
			<defs>
				<filter id="Adobe_OpacityMaskFilter_18_" filterUnits="userSpaceOnUse" x="6.4" y="17.4" width="8.7" height="9.9">
					<feColorMatrix  type="matrix" values="1 0 0 0 0  0 1 0 0 0  0 0 1 0 0  0 0 0 1 0"/>
				</filter>
			</defs>
			<mask maskUnits="userSpaceOnUse" x="6.4" y="17.4" width="8.7" height="9.9" id="mask-4_15_">
				<g class="st38">
					<polygon id="path-3_15_" class="st2" points="4.9,70 70.4,70 70.4,4.5 4.9,4.5 					"/>
				</g>
			</mask>
			<path id="Fill-22" class="st39" d="M9,22.6c0.3,0.5-0.1,1.2-0.4,1.6c-0.3,0.4-1.2,0.1-1.6,0c-0.5-0.2-0.9-0.5-0.6-1
				c0,0,0.1-0.3,0.1-0.5c0-0.4,0.1-0.9,0.6-0.6c0.2,0.1-0.4,1.1-0.4,1.2c0,0.1,0.1,0.1,0.3,0.2c0.5-0.3,0.1-1.3,0.9-1.1
				c0.3,0.3-0.1,0.8,0.1,1c0.2,0.2,0.3-0.7,0.7-0.8C8.9,22.6,9,22.6,9,22.6 M8.9,19.1c-0.1,0.1-0.5,0.4-0.5,0.1
				c0-0.5,0.4-0.8,0.6-1.2c0.2-0.4,0.5-0.7,1-0.6c0.3,0.1,0.7,0.4,1,0.7c0.3,0.2,0.3,0.7,0.3,1c0,0.5-0.2,1.5-0.9,1.2
				c-0.2-0.6,0.5-0.7,0.1-1.2c-0.4,0-0.3,0.4-0.7,0.4c-0.4-0.3,0.1-0.8-0.1-1.1c-0.2,0-0.4,0.2-0.5,0.4C9.1,19,9.1,19,8.9,19.1
				 M13.6,20.4c0.2,0,0.7,0,0.8,0.1c0.4,0.5-0.1,1-0.1,1.5c-0.2,0.7-0.6,1-0.1,1.7c0.3,0.5,0,1.5-0.7,1.4c-0.2-0.2,0-0.7-0.2-0.8
				c-0.8-0.1-0.8,1.4-2,1c0,0-0.1-0.1-0.1-0.1c-0.1-0.5,0.3-0.6,0.4-0.9c-0.2-0.2-0.5-0.2-0.7-0.5c-0.1-1,0.4-1.8,0.9-2.6
				c0.2-0.4,0.5-0.6,0.9-0.4c0.6,0.3,0.1,1.1,0.4,1.4C13.7,22.3,13.3,20.9,13.6,20.4C13.5,20.5,13.6,20.4,13.6,20.4 M11.6,23.2
				c-0.3-0.4,0.2-0.9,0.3-1.3c0-0.1,0.1-0.2,0.2-0.2c0.1,0,0,0,0.2,0.1C12.5,22,11.8,23.6,11.6,23.2 M12.6,23.5
				C12.6,23.5,12.6,23.5,12.6,23.5c0,0.6-0.5,0.6-0.6,0.4c0-0.1,0.3-0.8,0.5-0.6C12.6,23.3,12.6,23.4,12.6,23.5
				C12.6,23.4,12.6,23.4,12.6,23.5C12.6,23.5,12.6,23.5,12.6,23.5 M14.8,18.4c-0.4,0-1.8,0.2-2.1,0.4c-0.7,0.4-1,0.8-1.5,1.4
				c-0.2,0.3-0.4,0.6-0.7,0.4c-0.2-0.2-0.5,0.1-0.7,0c-0.3-0.1-0.3-0.3-0.4-0.6c-0.2-0.3-0.5,0-0.8,0.1c-0.2-0.1-0.1-0.6-0.2-0.7
				c-0.6,0-0.7,0.3-0.6,0.8C8,20.7,7.6,21,7.6,21.5c0.2,0.1,0.4,0.1,0.5,0c0.2,0.1,0.3,0.3,0.4,0.5c0.1,0.3,0.3,0.2,0.5,0.1
				c1.3-0.1,0.4,1.6,0.2,2.2c-0.1,0.3-0.2,0.8,0,1.2c0.1,0.2,0.4,0.8,0.5,1c0.3,0.5,1.8,1.2,1.3,0.1c-0.3-0.7-1-1.2-0.9-2.1
				c0.2-1,0.3-1.8,0.8-2.7c0.4-0.8,1.1-1.4,1.7-2c0.3-0.3,0.7-0.5,1.1-0.5c0.4,0,0.9,0.1,1.3,0C15.2,19.1,15,18.6,14.8,18.4
				 M9.9,21.9c-0.2-0.3,0.2-1,0.5-0.5C10.4,21.7,10.1,22,9.9,21.9"/>
			<defs>
				<filter id="Adobe_OpacityMaskFilter_19_" filterUnits="userSpaceOnUse" x="43.6" y="4.5" width="9.7" height="9.7">
					<feColorMatrix  type="matrix" values="1 0 0 0 0  0 1 0 0 0  0 0 1 0 0  0 0 0 1 0"/>
				</filter>
			</defs>
			<mask maskUnits="userSpaceOnUse" x="43.6" y="4.5" width="9.7" height="9.7" id="mask-4_16_">
				<g class="st40">
					<polygon id="path-3_16_" class="st2" points="4.9,70 70.4,70 70.4,4.5 4.9,4.5 					"/>
				</g>
			</mask>
			<path id="Fill-23" class="st41" d="M52.8,7c-1-0.6-2.1-1-3.3-1.3c-0.6-0.1-1.1,1.2-0.6,1.5C49.1,7.4,50,7.3,50,7.7v0
				c0,0.2-0.9-0.2-1.6,0.2c0,0-0.1,0-0.1,0.1c-0.2,0.1-0.4,0.4-0.6,0.6c-0.2,0.2-0.5,0.6-0.8,0.5c-0.3,0-0.7-0.5-0.7-0.5
				c0.1-0.2,0.4-0.1,0.6-0.3c0.4-0.5,0.3-1,0.5-1.5c0.2-0.6,1.1-0.4,1.1-1.2c0-0.3-0.3-0.5-0.5-0.7l-0.3-0.2
				c-0.1-0.1-0.7-0.1-0.6,0.3c0,0.2,0.4,0.7,0,0.8c-0.5,0.1-1.2-0.1-1.6-0.2c-0.1,0-0.7-0.2-0.8-0.2c-0.1,0-0.1,0-0.2,0.1
				c-0.2,0.2-0.2,0.5,0,0.7c0,0,0,0,0,0c0,0,0,0,0.1,0c0.1,0,0.5,0.1,0.5,0.1c0.2,0,0.6,0.1,0.9,0.2v0c0.3,0.1,0.5,0.3,0.1,0.4
				c0,0,0,0,0,0h0c-0.5,0.2-1.4-0.3-1.8,0c0,0,0,0-0.1,0c0,0.1-0.2,0.3,0,0.4c0.1,0.1,0.4,0.1,0.5,0.1c0.1,0,0.7,0,1,0
				c0.1,0,0.2,0,0.2,0c0.1,0,0.1,0,0.2,0c0.2,0,0.4,0,0.3,0.3c-0.1,0.3-1.3,0.6-1.6,0.6c-0.3-0.1-0.6,0.3-0.6,0.4
				c-0.1,0.3,0,0.6-0.2,0.9c-0.2,0.4-0.5,0.9-0.3,1.4c0.1,0.1,0.9,0.2,2,0.3c0.1,0,0.1,0,0.2,0c0.6,0.1,1.3,0.2,1.9,0.5
				c0.2,0.1,0.4,0.2,0.5,0.2c0.7,0.4,1.5,0.8,1.6,1c0.6,0.7,1.5,1.8,1.8,1.3c0-0.5-0.3-0.8-0.5-1.2c-0.1-0.2,0.1-0.3,0.2-0.4
				c0.3-0.4,0.4-1.1,0.5-1.6c0.1-0.4,0.2-0.9,0.3-1.3c0.1-0.5-0.6-0.8-1-1c-0.1,0-0.2-0.1-0.2-0.2c0.1-0.4,0.7-0.1,1.1,0.2
				c0.2,0.1,0.6,0.1,0.6-0.1C53,8.3,53.1,8,53.2,7.8C53.4,7.4,53.1,7.2,52.8,7 M44.7,10.3c0.3,0.1,1.3-1.1,0.7-1.4
				C44.8,8.5,44.4,10.1,44.7,10.3 M46.1,9.7c0.1-0.1,0.3-0.2,0.6,0c0,0,0.1,0.1,0.1,0.1C46.9,10.8,45.4,10.4,46.1,9.7 M49,8.5
				c0.1-0.3,0.5-0.1,0.6,0.1c0,0,0,0.1-0.1,0.1C49.4,8.7,49.2,8.8,49,8.5C49,8.6,49,8.5,49,8.5 M47.8,11.1c0.3,0.2,0.9,0,0.9-0.4
				c0-0.7-1.1-0.8-1.4-0.3C47.3,10.5,47.5,10.9,47.8,11.1 M48.8,9.8c-0.1-0.1-0.6-0.3-0.6-0.5c0.1-0.2,0.3-0.3,0.9,0.1
				c0,0,0.1,0.1,0.1,0.2C49.2,9.7,49.1,9.9,48.8,9.8 M50.5,12.1c0.2-0.3,0.2-0.7-0.1-0.9c0,0-0.1,0-0.1-0.1
				c-0.1-0.1-0.3-0.1-0.4-0.2c-0.1,0-0.2-0.1-0.3-0.1c-0.3,0-0.5,0.2-0.5,0.5c0,0.6,0.8,0.8,1.2,0.8C50.4,12.1,50.5,12.1,50.5,12.1
				 M51.2,10.6c-0.1,0.3-1-0.3-1-0.7c0,0,0-0.1,0-0.1C50.5,9.8,51.3,10.3,51.2,10.6 M50.4,9c0.1-0.5,0.8,0,0.6,0.4c0,0-0.1,0-0.1,0
				c-0.1,0-0.2-0.1-0.2-0.2C50.6,9.2,50.4,9.1,50.4,9 M51.6,7.8C51.6,7.8,51.6,7.8,51.6,7.8C51.2,7.3,50.4,7,49.9,7c0,0-0.1,0-0.1,0
				c0,0,0,0,0,0c-0.1-0.1-0.3-0.6,0.1-0.5c0.5,0.1,0.4,0.2,0.8,0.3c0.3,0.1,0.8,0.3,1.1,0.4c0,0,0,0,0,0c0,0,0,0,0.1,0h0
				c0,0,0.1,0.1,0.1,0.1C52.3,7.6,52.1,8,51.6,7.8"/>
			<defs>
				<filter id="Adobe_OpacityMaskFilter_20_" filterUnits="userSpaceOnUse" x="59.3" y="17.8" width="8.6" height="9.9">
					<feColorMatrix  type="matrix" values="1 0 0 0 0  0 1 0 0 0  0 0 1 0 0  0 0 0 1 0"/>
				</filter>
			</defs>
			<mask maskUnits="userSpaceOnUse" x="59.3" y="17.8" width="8.6" height="9.9" id="mask-4_17_">
				<g class="st42">
					<polygon id="path-3_17_" class="st2" points="4.9,70 70.4,70 70.4,4.5 4.9,4.5 					"/>
				</g>
			</mask>
			<path id="Fill-24" class="st43" d="M67.8,25.3c0-0.2-0.2-0.6-0.2-0.9v0c0-0.7-0.2-1.4-0.3-2.1c0-0.3-0.2-1.5,0.3-1.5
				c0,0,0.1-0.1,0.1-0.2c0-0.6-0.3-0.8-0.9-0.6c-0.3,0.1-0.5,0.2-0.7,0c-0.1,0-0.6-0.4-1.1-0.7c-0.3-0.2-1.3-1-1.3-1
				c-0.5-0.3-0.9-1-1.2-0.2c0.3,0.7,1.1,0.9,1.7,1.4c0.3,0.2,0.4,0.7-0.1,0.6c-0.5-0.2-1.1-0.8-1.5-1c-0.3-0.2-1-0.2-0.8,0.3
				c0.1,0.3,0.4,0.6,0.7,0.8c0.2,0.1,0.8,0.3,0.9,0.4c0.1,0.2,0.1,0.7-0.1,0.9c-0.2,0.3-0.9-0.2-1.2-0.4c0,0-0.1-0.1-0.3-0.2
				c-0.2-0.1-0.6-0.3-0.9-0.5c-0.1-0.1-0.5-0.2-0.5-0.2c-0.3-0.1-1.3-0.3-1.1,0.4c0,0,0,0,0.1,0.1c0.1,0.1,0.3,0.2,0.6,0.4
				c0.3,0.1,1.5,0.5,1.9,0.8c0.4,0.2,0.9,0.3,1.3,0.7c0.1,0.1,0.2,0.3,0.2,0.4c0,0.1,0.2,0.9,0.2,1.2c0,0.7-0.2,1.6-0.3,2.1
				c-0.2,0.6-0.7,1.5,0.2,1.5c0.9,0,0.9-2.9,0.9-3.6c0-0.2,0.1-1.1,0.5-0.8c0.7,0.5,0.5,1.4,0.6,2.2c0,0.2,0.2,0.3,0.4,0.3
				c0.1,0,0.3,0,0.3,0c0.1-0.2,0.2-0.5,0.2-0.8c0-0.5-0.3-1.1-0.1-1.6c0.1-0.3,0.3-0.4,0.4,0c0,0,0,0,0,0c0,0.1,0.1,0.4,0.1,0.5
				c0,0.5,0.2,1.9,0.2,2c0.2,0.3,0.6,0.4,0.9,0.1C68,25.8,67.8,25.5,67.8,25.3 M66.6,21.6c0,0.6-0.6,1-1.1,1.2
				c-0.5,0.3-1.1-0.4-1.2-0.7c-0.1-0.2-0.1-0.8,0.1-0.9c0.2-0.2,0.5,0,0.7-0.2c0,0,0-0.1,0-0.1c-0.1-0.6,0.8-0.2,1.2,0.1
				C66.5,21.1,66.6,21.5,66.6,21.6"/>
			<defs>
				<filter id="Adobe_OpacityMaskFilter_21_" filterUnits="userSpaceOnUse" x="37.8" y="49.1" width="4" height="3">
					<feColorMatrix  type="matrix" values="1 0 0 0 0  0 1 0 0 0  0 0 1 0 0  0 0 0 1 0"/>
				</filter>
			</defs>
			<mask maskUnits="userSpaceOnUse" x="37.8" y="49.1" width="4" height="3" id="mask-4_18_">
				<g class="st44">
					<polygon id="path-3_18_" class="st2" points="4.9,70 70.4,70 70.4,4.5 4.9,4.5 					"/>
				</g>
			</mask>
			<path id="Fill-25" class="st45" d="M41.4,49.1h-3.2c-0.2,0-0.4,0.2-0.4,0.4v0.9c0,0.2,0.2,0.4,0.4,0.4l1.3,0h1.3
				c0.1,0,0.2,0.1,0.2,0.2v0.3c0,0.1-0.1,0.2-0.2,0.2h-1.8c-0.1,0-0.1,0-0.2-0.1h-0.9v0.2c0,0.2,0.2,0.4,0.4,0.4h3.2
				c0.2,0,0.4-0.2,0.4-0.4v-2.1C41.8,49.3,41.6,49.1,41.4,49.1z M40.9,50.2c0,0.1-0.1,0.2-0.2,0.2h-1.8c-0.1,0-0.2-0.1-0.2-0.2v-0.4
				c0-0.1,0.1-0.2,0.2-0.2h1.8c0.1,0,0.2,0.1,0.2,0.2V50.2z"/>
			<defs>
				<filter id="Adobe_OpacityMaskFilter_22_" filterUnits="userSpaceOnUse" x="42.9" y="49.1" width="4" height="3">
					<feColorMatrix  type="matrix" values="1 0 0 0 0  0 1 0 0 0  0 0 1 0 0  0 0 0 1 0"/>
				</filter>
			</defs>
			<mask maskUnits="userSpaceOnUse" x="42.9" y="49.1" width="4" height="3" id="mask-4_19_">
				<g class="st46">
					<polygon id="path-3_19_" class="st2" points="4.9,70 70.4,70 70.4,4.5 4.9,4.5 					"/>
				</g>
			</mask>
			<path id="Fill-26" class="st47" d="M43.3,52.1h3.2c0.2,0,0.4-0.2,0.4-0.4v-0.9c0-0.2-0.2-0.4-0.4-0.4h-1.3H44
				c-0.1,0-0.2-0.1-0.2-0.2v-0.3c0-0.1,0.1-0.2,0.2-0.2h1.8c0.1,0,0.1,0,0.2,0.1H47v-0.2c0-0.2-0.2-0.4-0.4-0.4h-3.2
				c-0.2,0-0.4,0.2-0.4,0.4v2.1C42.9,51.9,43.1,52.1,43.3,52.1z M43.8,50.9c0-0.1,0.1-0.2,0.2-0.2h1.8c0.1,0,0.2,0.1,0.2,0.2v0.4
				c0,0.1-0.1,0.2-0.2,0.2v0H44c-0.1,0-0.2-0.1-0.2-0.2V50.9z"/>
			<defs>
				<filter id="Adobe_OpacityMaskFilter_23_" filterUnits="userSpaceOnUse" x="4.9" y="37.6" width="4.1" height="2.7">
					<feColorMatrix  type="matrix" values="1 0 0 0 0  0 1 0 0 0  0 0 1 0 0  0 0 0 1 0"/>
				</filter>
			</defs>
			<mask maskUnits="userSpaceOnUse" x="4.9" y="37.6" width="4.1" height="2.7" id="mask-4_20_">
				<g class="st48">
					<polygon id="path-3_20_" class="st2" points="4.9,70 70.4,70 70.4,4.5 4.9,4.5 					"/>
				</g>
			</mask>
			<path id="Fill-27" class="st49" d="M4.9,38.8c0-0.2,0-0.7,0-1.1c0.2,0,0.5,0,0.7,0.1l0,0c-0.2,0.3-0.4,0.7-0.4,1.1
				c0,0.4,0.2,0.6,0.5,0.6c0.2,0,0.4-0.1,0.5-0.3c0.2-0.3,0.4-0.7,0.6-1c0.3-0.4,0.6-0.5,1-0.5c0.4,0,1.1,0.1,1.1,1.5
				c0,0.2,0,0.6,0,1c-0.2,0-0.5-0.1-0.7-0.1l0,0c0.2-0.2,0.3-0.4,0.3-0.9c0-0.4-0.3-0.7-0.5-0.6c-0.3,0-0.5,0.1-0.9,0.8
				c-0.5,1-0.8,1-1.1,1C5.6,40.3,4.9,40.1,4.9,38.8"/>
			<defs>
				<filter id="Adobe_OpacityMaskFilter_24_" filterUnits="userSpaceOnUse" x="5.1" y="40.5" width="4.5" height="4">
					<feColorMatrix  type="matrix" values="1 0 0 0 0  0 1 0 0 0  0 0 1 0 0  0 0 0 1 0"/>
				</filter>
			</defs>
			<mask maskUnits="userSpaceOnUse" x="5.1" y="40.5" width="4.5" height="4" id="mask-4_21_">
				<g class="st50">
					<polygon id="path-3_21_" class="st2" points="4.9,70 70.4,70 70.4,4.5 4.9,4.5 					"/>
				</g>
			</mask>
			<path id="Fill-28" class="st51" d="M7.6,44.1c-0.5,0.1-1.5,0.3-2,0.4c0-0.2,0-0.3-0.1-0.5c0-0.1,0-0.3-0.1-0.5
				c0.6,0,1.4-0.2,1.8-0.2c0-0.3-0.1-0.4-0.1-0.7c0-0.2-0.1-0.4-0.1-0.7c-0.6,0.1-1.2,0.2-1.8,0.4c0-0.2,0-0.4-0.1-0.5
				c0-0.1,0-0.3-0.1-0.5c0.6,0,1.5-0.2,2-0.2c0.4-0.1,1.8-0.3,2-0.5l0,0c0,0.2,0,0.4,0.1,0.6c0,0.2,0.1,0.4,0.1,0.5
				c-0.4,0-1,0.1-1.7,0.2c0,0.3,0.1,0.4,0.1,0.7c0,0.2,0.1,0.3,0.1,0.7C8.6,43,9,42.9,9.4,42.7l0,0c0,0.2,0,0.3,0.1,0.6
				c0,0.2,0.1,0.4,0.1,0.5C9.1,43.9,8.1,44,7.6,44.1"/>
			<defs>
				<filter id="Adobe_OpacityMaskFilter_25_" filterUnits="userSpaceOnUse" x="5.8" y="45.3" width="4.6" height="3.6">
					<feColorMatrix  type="matrix" values="1 0 0 0 0  0 1 0 0 0  0 0 1 0 0  0 0 0 1 0"/>
				</filter>
			</defs>
			<mask maskUnits="userSpaceOnUse" x="5.8" y="45.3" width="4.6" height="3.6" id="mask-4_22_">
				<g class="st52">
					<polygon id="path-3_22_" class="st2" points="4.9,70 70.4,70 70.4,4.5 4.9,4.5 					"/>
				</g>
			</mask>
			<path id="Fill-29" class="st53" d="M6.7,48.2c-0.1-0.2-0.1-0.3-0.2-0.5c0.4-0.1,1-0.5,1.3-0.7c0-0.2-0.1-0.4-0.1-0.5
				c-0.1-0.2-0.1-0.4-0.2-0.5c-0.3,0-1.1,0-1.4,0.2C6,46,6,45.9,5.9,45.7c0-0.2-0.1-0.3-0.2-0.5c0.2,0.1,0.7,0.1,0.9,0.1
				c0.4,0,0.9,0.1,1.4,0.1c0.4,0,1,0,1.5,0c0.1,0,0.4,0,0.5-0.1l0,0c0.1,0.2,0.1,0.3,0.2,0.5c0.1,0.2,0.1,0.3,0.2,0.5
				c-0.1,0.1-0.3,0.2-0.5,0.3c-0.4,0.2-0.8,0.5-1.2,0.8c-0.6,0.4-0.9,0.6-1.2,0.8c-0.1,0.1-0.4,0.3-0.7,0.6
				C6.8,48.6,6.7,48.4,6.7,48.2 M9.3,46L9.3,46c-0.5,0-1,0-1.4,0c0,0.2,0.1,0.3,0.1,0.4c0.1,0.2,0.1,0.3,0.1,0.4
				C8.5,46.5,8.9,46.2,9.3,46"/>
			<defs>
				<filter id="Adobe_OpacityMaskFilter_26_" filterUnits="userSpaceOnUse" x="7.1" y="47.8" width="5" height="4.5">
					<feColorMatrix  type="matrix" values="1 0 0 0 0  0 1 0 0 0  0 0 1 0 0  0 0 0 1 0"/>
				</filter>
			</defs>
			<mask maskUnits="userSpaceOnUse" x="7.1" y="47.8" width="5" height="4.5" id="mask-4_23_">
				<g class="st54">
					<polygon id="path-3_23_" class="st2" points="4.9,70 70.4,70 70.4,4.5 4.9,4.5 					"/>
				</g>
			</mask>
			<path id="Fill-30" class="st55" d="M10.2,51.5c-0.2,0.1-1.3,0.6-1.7,0.8c-0.1-0.2-0.2-0.5-0.4-0.7C8.4,51.2,9,50.3,9.3,50
				l0.8-1.1l0,0l-1.1,0.5c-0.2,0.1-1.3,0.6-1.6,0.9c-0.1-0.1-0.1-0.3-0.2-0.4c-0.1-0.1-0.1-0.3-0.2-0.4c0.6-0.1,2-0.7,2.3-0.9
				c0.2-0.1,1.1-0.5,1.4-0.8l0,0c0.1,0.2,0.1,0.3,0.2,0.5c0.1,0.2,0.2,0.4,0.2,0.5c-0.2,0.2-0.7,0.8-0.9,1.1c-0.4,0.6-0.7,1-0.9,1.3
				l0,0l0.7-0.3c0.4-0.2,1.4-0.7,1.6-0.9c0,0.1,0.1,0.3,0.2,0.4c0.1,0.2,0.1,0.2,0.2,0.4C11.6,50.9,10.5,51.4,10.2,51.5"/>
			<defs>
				<filter id="Adobe_OpacityMaskFilter_27_" filterUnits="userSpaceOnUse" x="9.5" y="51.8" width="4.6" height="4.3">
					<feColorMatrix  type="matrix" values="1 0 0 0 0  0 1 0 0 0  0 0 1 0 0  0 0 0 1 0"/>
				</filter>
			</defs>
			<mask maskUnits="userSpaceOnUse" x="9.5" y="51.8" width="4.6" height="4.3" id="mask-4_24_">
				<g class="st56">
					<polygon id="path-3_24_" class="st2" points="4.9,70 70.4,70 70.4,4.5 4.9,4.5 					"/>
				</g>
			</mask>
			<path id="Fill-31" class="st57" d="M11.5,55.7c-0.1,0.1-0.4,0.2-0.7,0.4c-0.4-0.4-0.6-0.7-0.9-1.2c-0.7-1.1-0.6-1.9,0.7-2.7
				c0.8-0.5,1.9-0.8,2.8,0.7c0.3,0.4,0.5,0.9,0.7,1.1c-0.3,0.1-0.5,0.2-0.8,0.3l0,0c0.1-0.3,0-0.8-0.2-1.2c-0.4-0.7-1.2-0.6-2-0.1
				c-1.1,0.7-1.2,1.3-0.7,1.9c0.2,0.3,0.4,0.2,0.5,0.1l0.4-0.2c0.2-0.1,0.4-0.2,0.5-0.5l0,0c0.1,0.2,0.2,0.3,0.3,0.5
				c0.1,0.2,0.2,0.3,0.3,0.4C12.2,55.3,11.8,55.5,11.5,55.7"/>
			<defs>
				<filter id="Adobe_OpacityMaskFilter_28_" filterUnits="userSpaceOnUse" x="11.4" y="54.4" width="5.2" height="5.2">
					<feColorMatrix  type="matrix" values="1 0 0 0 0  0 1 0 0 0  0 0 1 0 0  0 0 0 1 0"/>
				</filter>
			</defs>
			<mask maskUnits="userSpaceOnUse" x="11.4" y="54.4" width="5.2" height="5.2" id="mask-4_25_">
				<g class="st58">
					<polygon id="path-3_25_" class="st2" points="4.9,70 70.4,70 70.4,4.5 4.9,4.5 					"/>
				</g>
			</mask>
			<path id="Fill-32" class="st59" d="M15,58.3c-0.4,0.3-1.2,1-1.5,1.4c-0.1-0.2-0.2-0.3-0.3-0.4c-0.1-0.1-0.2-0.2-0.4-0.4
				c0.5-0.3,1.1-0.8,1.5-1.1c-0.2-0.2-0.3-0.3-0.4-0.5c-0.1-0.2-0.3-0.3-0.5-0.5c-0.5,0.4-0.9,0.8-1.4,1.3c-0.1-0.2-0.2-0.3-0.3-0.4
				c-0.1-0.1-0.2-0.2-0.4-0.4c0.5-0.3,1.2-0.9,1.6-1.2c0.3-0.3,1.4-1.2,1.4-1.4l0,0c0.1,0.2,0.2,0.3,0.4,0.5
				c0.1,0.1,0.2,0.3,0.4,0.4c-0.3,0.2-0.8,0.6-1.4,1.1c0.2,0.3,0.3,0.4,0.4,0.5c0.1,0.2,0.2,0.3,0.4,0.5c0.7-0.6,1-0.9,1.2-1.2l0,0
				c0.1,0.2,0.2,0.3,0.4,0.5c0.1,0.1,0.3,0.3,0.4,0.4C16.2,57.3,15.5,57.9,15,58.3"/>
			<defs>
				<filter id="Adobe_OpacityMaskFilter_29_" filterUnits="userSpaceOnUse" x="14.1" y="58.2" width="4.5" height="4.5">
					<feColorMatrix  type="matrix" values="1 0 0 0 0  0 1 0 0 0  0 0 1 0 0  0 0 0 1 0"/>
				</filter>
			</defs>
			<mask maskUnits="userSpaceOnUse" x="14.1" y="58.2" width="4.5" height="4.5" id="mask-4_26_">
				<g class="st60">
					<polygon id="path-3_26_" class="st2" points="4.9,70 70.4,70 70.4,4.5 4.9,4.5 					"/>
				</g>
			</mask>
			<path id="Fill-33" class="st61" d="M16.4,62.3c-0.1-0.1-0.3-0.2-0.4-0.4c0.3-0.3,0.6-0.9,0.7-1.2c-0.1-0.1-0.3-0.3-0.4-0.4
				c-0.1-0.1-0.3-0.2-0.4-0.3c-0.3,0.2-0.9,0.6-1.1,0.9c-0.2-0.1-0.2-0.2-0.3-0.3c-0.1-0.1-0.2-0.2-0.4-0.3c0.2-0.1,0.7-0.3,0.8-0.3
				c0.4-0.2,0.8-0.4,1.2-0.6c0.3-0.2,0.9-0.5,1.3-0.7c0.1-0.1,0.3-0.2,0.4-0.3l0,0c0.1,0.1,0.3,0.2,0.4,0.3c0.1,0.1,0.3,0.2,0.4,0.3
				c-0.1,0.1-0.2,0.3-0.3,0.5c-0.2,0.4-0.4,0.9-0.6,1.2c-0.3,0.6-0.5,1-0.6,1.3c-0.1,0.1-0.2,0.5-0.3,0.8
				C16.7,62.5,16.5,62.4,16.4,62.3 M17.5,59L17.5,59c-0.5,0.2-0.9,0.5-1.3,0.7c0.1,0.1,0.2,0.2,0.3,0.3c0.2,0.1,0.2,0.2,0.3,0.3
				C17.1,59.9,17.3,59.4,17.5,59"/>
			<defs>
				<filter id="Adobe_OpacityMaskFilter_30_" filterUnits="userSpaceOnUse" x="17.4" y="59.8" width="3.3" height="3.9">
					<feColorMatrix  type="matrix" values="1 0 0 0 0  0 1 0 0 0  0 0 1 0 0  0 0 0 1 0"/>
				</filter>
			</defs>
			<mask maskUnits="userSpaceOnUse" x="17.4" y="59.8" width="3.3" height="3.9" id="mask-4_27_">
				<g class="st62">
					<polygon id="path-3_27_" class="st2" points="4.9,70 70.4,70 70.4,4.5 4.9,4.5 					"/>
				</g>
			</mask>
			<path id="Fill-34" class="st63" d="M17.9,63.4c-0.2-0.1-0.3-0.2-0.5-0.3c0.5-0.5,1-1.2,1.3-1.5c0.4-0.5,1-1.3,1.1-1.7l0,0
				c0.1,0.1,0.3,0.2,0.4,0.3c0.1,0.1,0.3,0.2,0.5,0.3c-0.4,0.4-1,1.3-1.2,1.4c-0.2,0.3-0.9,1.2-1.2,1.8C18.1,63.6,18,63.5,17.9,63.4
				"/>
			<defs>
				<filter id="Adobe_OpacityMaskFilter_31_" filterUnits="userSpaceOnUse" x="19.7" y="61.8" width="3.9" height="4">
					<feColorMatrix  type="matrix" values="1 0 0 0 0  0 1 0 0 0  0 0 1 0 0  0 0 0 1 0"/>
				</filter>
			</defs>
			<mask maskUnits="userSpaceOnUse" x="19.7" y="61.8" width="3.9" height="4" id="mask-4_28_">
				<g class="st64">
					<polygon id="path-3_28_" class="st2" points="4.9,70 70.4,70 70.4,4.5 4.9,4.5 					"/>
				</g>
			</mask>
			<path id="Fill-35" class="st65" d="M22.6,64.1c-0.3,0.5-0.6,1-0.7,1.2c-0.3,0.6-0.9,0.8-2.2,0.3l0.1-0.4c0.5,0.2,0.8,0.2,1.2-0.3
				c0.1-0.2,0.4-0.7,0.6-1c0.4-0.6,1-1.6,1-2l0,0c0.2,0.1,0.3,0.2,0.5,0.3c0.2,0.1,0.3,0.2,0.5,0.3C23.3,62.8,22.8,63.7,22.6,64.1"
				/>
			<defs>
				<filter id="Adobe_OpacityMaskFilter_32_" filterUnits="userSpaceOnUse" x="22.6" y="62.7" width="2.7" height="4.1">
					<feColorMatrix  type="matrix" values="1 0 0 0 0  0 1 0 0 0  0 0 1 0 0  0 0 0 1 0"/>
				</filter>
			</defs>
			<mask maskUnits="userSpaceOnUse" x="22.6" y="62.7" width="2.7" height="4.1" id="mask-4_29_">
				<g class="st66">
					<polygon id="path-3_29_" class="st2" points="4.9,70 70.4,70 70.4,4.5 4.9,4.5 					"/>
				</g>
			</mask>
			<path id="Fill-36" class="st67" d="M23.6,66.9c-0.2-0.1-0.4-0.2-0.5-0.2c-0.2-0.1-0.3-0.1-0.5-0.2c0.4-0.6,0.8-1.3,1-1.8
				c0.3-0.6,0.7-1.4,0.7-1.9l0,0c0.2,0.1,0.3,0.2,0.5,0.3c0.2,0.1,0.3,0.2,0.5,0.2c-0.3,0.4-0.8,1.4-0.9,1.6
				C24.3,65.2,23.8,66.2,23.6,66.9L23.6,66.9z"/>
			<defs>
				<filter id="Adobe_OpacityMaskFilter_33_" filterUnits="userSpaceOnUse" x="24.2" y="63.9" width="3.7" height="4.6">
					<feColorMatrix  type="matrix" values="1 0 0 0 0  0 1 0 0 0  0 0 1 0 0  0 0 0 1 0"/>
				</filter>
			</defs>
			<mask maskUnits="userSpaceOnUse" x="24.2" y="63.9" width="3.7" height="4.6" id="mask-4_30_">
				<g class="st68">
					<polygon id="path-3_30_" class="st2" points="4.9,70 70.4,70 70.4,4.5 4.9,4.5 					"/>
				</g>
			</mask>
			<path id="Fill-37" class="st69" d="M27.1,68.3c-0.2-0.1-0.3-0.1-0.5-0.2c0.1-0.4,0.2-1.1,0.2-1.4c-0.2-0.1-0.3-0.2-0.5-0.2
				c-0.2-0.1-0.4-0.1-0.5-0.2c-0.2,0.3-0.6,0.9-0.7,1.2c-0.2-0.1-0.3-0.1-0.4-0.2c-0.2-0.1-0.3-0.1-0.5-0.2c0.2-0.2,0.5-0.5,0.6-0.6
				c0.3-0.3,0.6-0.7,0.9-1c0.3-0.3,0.6-0.8,0.9-1.2c0.1-0.1,0.2-0.3,0.2-0.4l0,0c0.2,0.1,0.3,0.1,0.5,0.2c0.2,0.1,0.3,0.1,0.5,0.2
				c0,0.1-0.1,0.4-0.1,0.6c0,0.4-0.1,1-0.1,1.4c0,0.7-0.1,1.1-0.1,1.4c0,0.1,0,0.5,0,0.9C27.4,68.4,27.3,68.3,27.1,68.3 M26.9,64.8
				L26.9,64.8c-0.4,0.4-0.6,0.7-0.9,1.1c0.1,0.1,0.2,0.1,0.4,0.2c0.2,0.1,0.3,0.1,0.4,0.1C26.9,65.8,26.9,65.3,26.9,64.8"/>
			<defs>
				<filter id="Adobe_OpacityMaskFilter_34_" filterUnits="userSpaceOnUse" x="28.5" y="65.1" width="4" height="4.1">
					<feColorMatrix  type="matrix" values="1 0 0 0 0  0 1 0 0 0  0 0 1 0 0  0 0 0 1 0"/>
				</filter>
			</defs>
			<mask maskUnits="userSpaceOnUse" x="28.5" y="65.1" width="4" height="4.1" id="mask-4_31_">
				<g class="st70">
					<polygon id="path-3_31_" class="st2" points="4.9,70 70.4,70 70.4,4.5 4.9,4.5 					"/>
				</g>
			</mask>
			<path id="Fill-38" class="st71" d="M32.4,67.6c-0.2,0.9-0.7,1.9-2.3,1.6c-1-0.2-1.8-0.7-1.4-2.4c0.2-1,0.7-2,2.4-1.6
				C32.4,65.5,32.7,66.3,32.4,67.6 M29.5,67c-0.2,0.9-0.1,1.6,0.6,1.8c0.8,0.2,1.1-0.6,1.3-1.4c0.2-0.7,0.2-1.6-0.5-1.8
				C30.1,65.4,29.7,66.1,29.5,67"/>
			<defs>
				<filter id="Adobe_OpacityMaskFilter_35_" filterUnits="userSpaceOnUse" x="34.2" y="65.8" width="3.4" height="4.2">
					<feColorMatrix  type="matrix" values="1 0 0 0 0  0 1 0 0 0  0 0 1 0 0  0 0 0 1 0"/>
				</filter>
			</defs>
			<mask maskUnits="userSpaceOnUse" x="34.2" y="65.8" width="3.4" height="4.2" id="mask-4_32_">
				<g class="st72">
					<polygon id="path-3_32_" class="st2" points="4.9,70 70.4,70 70.4,4.5 4.9,4.5 					"/>
				</g>
			</mask>
			<path id="Fill-39" class="st73" d="M37.5,66.5L37.5,66.5c-0.2-0.1-0.6-0.2-1.1-0.2c0,0.1-0.1,0.9-0.1,1.8c0,0.8,0,1.7,0,1.8
				c-0.2,0-0.3,0-0.5,0c-0.2,0-0.3,0-0.6,0c0.1-0.5,0.2-1.6,0.2-2c0-0.4,0.1-1.2,0.1-1.6c-0.4,0-1,0-1.2,0.1l0,0
				c0-0.2,0.1-0.4,0.1-0.6c0.6,0.1,1.1,0.1,1.6,0.1c0.6,0,1.1,0.1,1.7,0.1C37.6,66.1,37.5,66.3,37.5,66.5"/>
			<defs>
				<filter id="Adobe_OpacityMaskFilter_36_" filterUnits="userSpaceOnUse" x="37.6" y="65.8" width="3.9" height="4.1">
					<feColorMatrix  type="matrix" values="1 0 0 0 0  0 1 0 0 0  0 0 1 0 0  0 0 0 1 0"/>
				</filter>
			</defs>
			<mask maskUnits="userSpaceOnUse" x="37.6" y="65.8" width="3.9" height="4.1" id="mask-4_33_">
				<g class="st74">
					<polygon id="path-3_33_" class="st2" points="4.9,70 70.4,70 70.4,4.5 4.9,4.5 					"/>
				</g>
			</mask>
			<path id="Fill-40" class="st75" d="M41.5,67.8c0.1,0.9-0.1,2.1-1.8,2.2c-1,0.1-1.9-0.2-2-1.9c-0.1-1,0.1-2.1,1.8-2.2
				C40.9,65.8,41.4,66.5,41.5,67.8 M38.6,68c0.1,0.9,0.4,1.6,1.1,1.5c0.8-0.1,0.9-0.9,0.9-1.7c0-0.8-0.2-1.6-1.1-1.6
				C38.7,66.3,38.5,67.1,38.6,68"/>
			<defs>
				<filter id="Adobe_OpacityMaskFilter_37_" filterUnits="userSpaceOnUse" x="41.8" y="65" width="3.9" height="4.6">
					<feColorMatrix  type="matrix" values="1 0 0 0 0  0 1 0 0 0  0 0 1 0 0  0 0 0 1 0"/>
				</filter>
			</defs>
			<mask maskUnits="userSpaceOnUse" x="41.8" y="65" width="3.9" height="4.6" id="mask-4_34_">
				<g class="st76">
					<polygon id="path-3_34_" class="st2" points="4.9,70 70.4,70 70.4,4.5 4.9,4.5 					"/>
				</g>
			</mask>
			<path id="Fill-41" class="st77" d="M45.3,67.1c0.1,0.3,0.3,1.4,0.4,1.9c-0.3,0-0.5,0.1-0.7,0.2c-0.4-0.4-1.1-1.2-1.4-1.6
				l-0.9-1.1l0,0l0.2,1.1c0,0.2,0.3,1.4,0.5,1.8c-0.2,0-0.3,0-0.4,0.1c-0.1,0-0.3,0.1-0.4,0.1c0-0.6-0.3-2.1-0.3-2.4
				c0-0.2-0.2-1.2-0.4-1.5l0,0c0.2,0,0.4-0.1,0.6-0.1c0.2,0,0.4-0.1,0.5-0.1c0.2,0.3,0.6,0.8,0.9,1.1c0.5,0.6,0.8,0.9,1.1,1.2l0,0
				L44.7,67c-0.1-0.4-0.4-1.6-0.6-1.8c0.1,0,0.3,0,0.4-0.1c0.2,0,0.2,0,0.4-0.1C45,65.6,45.2,66.8,45.3,67.1"/>
			<defs>
				<filter id="Adobe_OpacityMaskFilter_38_" filterUnits="userSpaceOnUse" x="45.9" y="63.8" width="4" height="4.5">
					<feColorMatrix  type="matrix" values="1 0 0 0 0  0 1 0 0 0  0 0 1 0 0  0 0 0 1 0"/>
				</filter>
			</defs>
			<mask maskUnits="userSpaceOnUse" x="45.9" y="63.8" width="4" height="4.5" id="mask-4_35_">
				<g class="st78">
					<polygon id="path-3_35_" class="st2" points="4.9,70 70.4,70 70.4,4.5 4.9,4.5 					"/>
				</g>
			</mask>
			<path id="Fill-42" class="st79" d="M49.6,66.7c0,0.2,0.1,0.5,0.3,0.8c-0.5,0.3-0.8,0.4-1.3,0.6c-1.2,0.4-2,0.1-2.5-1.3
				c-0.3-0.9-0.3-2,1.3-2.6c0.5-0.2,1-0.3,1.3-0.4c0,0.3,0,0.5,0.1,0.8l0,0c-0.3-0.2-0.7-0.2-1.2-0.1c-0.8,0.3-0.8,1-0.5,1.9
				c0.4,1.3,1,1.4,1.7,1.2c0.3-0.1,0.3-0.3,0.2-0.5l-0.1-0.4c-0.1-0.2-0.1-0.4-0.4-0.6l0,0c0.2,0,0.4-0.1,0.5-0.2
				c0.2-0.1,0.3-0.1,0.5-0.2C49.4,66,49.5,66.4,49.6,66.7"/>
			<defs>
				<filter id="Adobe_OpacityMaskFilter_39_" filterUnits="userSpaceOnUse" x="50.5" y="61.3" width="4.5" height="4.8">
					<feColorMatrix  type="matrix" values="1 0 0 0 0  0 1 0 0 0  0 0 1 0 0  0 0 0 1 0"/>
				</filter>
			</defs>
			<mask maskUnits="userSpaceOnUse" x="50.5" y="61.3" width="4.5" height="4.8" id="mask-4_36_">
				<g class="st80">
					<polygon id="path-3_36_" class="st2" points="4.9,70 70.4,70 70.4,4.5 4.9,4.5 					"/>
				</g>
			</mask>
			<path id="Fill-43" class="st81" d="M54,62.4c0.2,0.4,0.5,0.9,0.7,1.3c0.4,0.7,0.4,1.3-0.7,1.9c-1.1,0.7-1.6,0.4-2.1-0.4
				c-0.1-0.2-0.4-0.7-0.6-1c-0.1-0.2-0.6-1.1-0.9-1.3l0,0c0.1-0.1,0.3-0.2,0.5-0.3c0.2-0.1,0.3-0.2,0.5-0.3c0.2,0.5,0.7,1.4,0.8,1.7
				c0.3,0.6,0.6,1,0.7,1.1c0.2,0.2,0.5,0.2,0.8,0c0.7-0.4,0.5-0.9,0.1-1.7c-0.6-1.1-0.8-1.5-1.3-1.9c0.1-0.1,0.2-0.1,0.4-0.2
				c0.2-0.1,0.3-0.2,0.4-0.2C53.6,61.8,53.9,62.2,54,62.4"/>
			<defs>
				<filter id="Adobe_OpacityMaskFilter_40_" filterUnits="userSpaceOnUse" x="53.9" y="59" width="4.9" height="5.2">
					<feColorMatrix  type="matrix" values="1 0 0 0 0  0 1 0 0 0  0 0 1 0 0  0 0 0 1 0"/>
				</filter>
			</defs>
			<mask maskUnits="userSpaceOnUse" x="53.9" y="59" width="4.9" height="5.2" id="mask-4_37_">
				<g class="st82">
					<polygon id="path-3_37_" class="st2" points="4.9,70 70.4,70 70.4,4.5 4.9,4.5 					"/>
				</g>
			</mask>
			<path id="Fill-44" class="st83" d="M57.6,60.8c0.2,0.2,0.8,1.1,1.2,1.5c-0.2,0.2-0.4,0.3-0.6,0.5c-0.5-0.2-1.5-0.6-1.9-0.8
				L55,61.4l0,0l0.7,0.9c0.1,0.2,0.9,1.1,1.3,1.4c-0.1,0.1-0.2,0.2-0.3,0.2c-0.1,0.1-0.2,0.2-0.3,0.3c-0.2-0.5-1.2-1.8-1.4-2
				c-0.1-0.2-0.7-0.9-1.1-1.2l0,0c0.1-0.1,0.3-0.2,0.5-0.3c0.2-0.1,0.3-0.2,0.4-0.4c0.3,0.2,0.9,0.5,1.3,0.6
				c0.7,0.3,1.1,0.5,1.5,0.6l0,0l-0.5-0.6c-0.3-0.4-1-1.2-1.3-1.4c0.1-0.1,0.2-0.2,0.4-0.2c0.1-0.1,0.2-0.1,0.3-0.3
				C56.7,59.5,57.4,60.5,57.6,60.8"/>
			<defs>
				<filter id="Adobe_OpacityMaskFilter_41_" filterUnits="userSpaceOnUse" x="56.9" y="57.8" width="3.6" height="3.7">
					<feColorMatrix  type="matrix" values="1 0 0 0 0  0 1 0 0 0  0 0 1 0 0  0 0 0 1 0"/>
				</filter>
			</defs>
			<mask maskUnits="userSpaceOnUse" x="56.9" y="57.8" width="3.6" height="3.7" id="mask-4_38_">
				<g class="st84">
					<polygon id="path-3_38_" class="st2" points="4.9,70 70.4,70 70.4,4.5 4.9,4.5 					"/>
				</g>
			</mask>
			<path id="Fill-45" class="st85" d="M60.1,61.1c-0.1,0.1-0.2,0.2-0.4,0.4c-0.4-0.6-1-1.2-1.3-1.5c-0.5-0.5-1.1-1.2-1.5-1.3l0,0
				c0.1-0.1,0.3-0.2,0.4-0.4c0.1-0.1,0.3-0.3,0.4-0.4c0.3,0.4,1.1,1.3,1.2,1.4c0.3,0.3,1,1.1,1.6,1.5C60.3,60.9,60.2,61,60.1,61.1"
				/>
			<defs>
				<filter id="Adobe_OpacityMaskFilter_42_" filterUnits="userSpaceOnUse" x="58" y="55" width="4.4" height="4.3">
					<feColorMatrix  type="matrix" values="1 0 0 0 0  0 1 0 0 0  0 0 1 0 0  0 0 0 1 0"/>
				</filter>
			</defs>
			<mask maskUnits="userSpaceOnUse" x="58" y="55" width="4.4" height="4.3" id="mask-4_39_">
				<g class="st86">
					<polygon id="path-3_39_" class="st2" points="4.9,70 70.4,70 70.4,4.5 4.9,4.5 					"/>
				</g>
			</mask>
			<path id="Fill-46" class="st87" d="M60.7,55.7c0.2,0.3,0.5,0.8,0.7,1.3c0.3,0.4,0.8,1.3,1,1.7c-0.2,0.2-0.3,0.4-0.4,0.6
				c-0.6-0.3-1.3-0.6-1.9-0.9c-0.5-0.2-1-0.4-1.4-0.6c-0.2-0.1-0.5-0.2-0.7-0.2l0,0c0.1-0.1,0.3-0.3,0.4-0.4
				c0.1-0.2,0.3-0.3,0.4-0.5c0.1,0.1,0.3,0.2,0.5,0.3c0.3,0.1,0.7,0.4,1.2,0.6c0.4,0.2,0.6,0.3,0.9,0.4l0,0
				c-0.2-0.3-0.5-0.8-0.7-1.1c-0.4-0.6-0.7-1.1-1.1-1.3c0.1-0.1,0.2-0.2,0.3-0.3c0.1-0.1,0.2-0.2,0.3-0.3
				C60.4,55.2,60.6,55.5,60.7,55.7"/>
			<defs>
				<filter id="Adobe_OpacityMaskFilter_43_" filterUnits="userSpaceOnUse" x="60.5" y="52.6" width="4.8" height="4.4">
					<feColorMatrix  type="matrix" values="1 0 0 0 0  0 1 0 0 0  0 0 1 0 0  0 0 0 1 0"/>
				</filter>
			</defs>
			<mask maskUnits="userSpaceOnUse" x="60.5" y="52.6" width="4.8" height="4.4" id="mask-4_40_">
				<g class="st88">
					<polygon id="path-3_40_" class="st2" points="4.9,70 70.4,70 70.4,4.5 4.9,4.5 					"/>
				</g>
			</mask>
			<path id="Fill-47" class="st89" d="M65.3,54.9c-0.4,0.5-0.6,0.8-0.8,1.1c-0.2,0.3-0.3,0.4-0.7,1c-0.5-0.4-0.9-0.8-1.6-1.2
				c-0.7-0.5-1.5-1.1-1.7-1l0,0c0.3-0.3,0.6-0.8,0.8-1.1c0.2-0.2,0.4-0.6,0.7-1.1c0.1,0.1,0.3,0.3,0.4,0.4l0,0
				c-0.3,0.2-0.6,0.6-1,1.1c0.3,0.3,0.8,0.6,1.1,0.8c0.2-0.3,0.4-0.6,0.6-0.9c0.1,0.1,0.3,0.3,0.4,0.4c-0.3,0.3-0.5,0.5-0.7,0.8
				l0.6,0.4c0.5,0.4,0.7,0.4,0.9,0.1c0.3-0.4,0.5-0.8,0.5-1.1l0,0C65,54.7,65.1,54.8,65.3,54.9"/>
			<defs>
				<filter id="Adobe_OpacityMaskFilter_44_" filterUnits="userSpaceOnUse" x="62.2" y="49.9" width="5.1" height="4.2">
					<feColorMatrix  type="matrix" values="1 0 0 0 0  0 1 0 0 0  0 0 1 0 0  0 0 0 1 0"/>
				</filter>
			</defs>
			<mask maskUnits="userSpaceOnUse" x="62.2" y="49.9" width="5.1" height="4.2" id="mask-4_41_">
				<g class="st90">
					<polygon id="path-3_41_" class="st2" points="4.9,70 70.4,70 70.4,4.5 4.9,4.5 					"/>
				</g>
			</mask>
			<path id="Fill-48" class="st91" d="M67.1,51.7c-0.1,0.2-0.2,0.3-0.3,0.5c-0.3-0.1-0.6-0.2-1-0.3c-0.4-0.1-0.7-0.1-0.8,0
				c-0.2,0.1-0.2,0.2-0.3,0.5c0.3,0.1,1.3,0.7,1.7,0.8c-0.1,0.1-0.2,0.3-0.3,0.5c-0.1,0.2-0.2,0.3-0.2,0.5c-0.5-0.4-1.4-0.9-1.7-1
				c-0.5-0.3-1.5-0.8-1.8-0.8l0,0c0.2-0.3,0.3-0.5,0.4-0.8c0.2-0.3,0.3-0.6,0.5-0.9c0.4-0.7,0.9-0.7,1.3-0.5
				c0.4,0.2,0.7,0.7,0.5,1.3l0,0c0.2-0.3,0.4-0.4,0.7-0.3c0.2,0,0.2,0,0.6,0.1c0.4,0.1,0.9,0.1,1.2,0.1l0,0
				C67.2,51.4,67.2,51.6,67.1,51.7 M63.3,51.1c-0.1,0.2-0.1,0.3-0.2,0.4c0.2,0.2,0.5,0.3,0.6,0.4c0.2,0.1,0.4,0.2,0.6,0.3
				c0.1-0.1,0.1-0.2,0.2-0.3c0.2-0.4,0.2-0.7-0.4-1C63.6,50.7,63.4,50.9,63.3,51.1"/>
			<defs>
				<filter id="Adobe_OpacityMaskFilter_45_" filterUnits="userSpaceOnUse" x="64.2" y="46.9" width="4" height="3.8">
					<feColorMatrix  type="matrix" values="1 0 0 0 0  0 1 0 0 0  0 0 1 0 0  0 0 0 1 0"/>
				</filter>
			</defs>
			<mask maskUnits="userSpaceOnUse" x="64.2" y="46.9" width="4" height="3.8" id="mask-4_42_">
				<g class="st92">
					<polygon id="path-3_42_" class="st2" points="4.9,70 70.4,70 70.4,4.5 4.9,4.5 					"/>
				</g>
			</mask>
			<path id="Fill-49" class="st93" d="M68,49.7c-0.1,0.2-0.3,0.7-0.5,1c-0.2-0.1-0.4-0.2-0.6-0.4l0,0c0.3-0.2,0.6-0.4,0.8-0.8
				c0.1-0.3,0.1-0.6-0.2-0.7c-0.2-0.1-0.4-0.1-0.6,0.1c-0.3,0.2-0.6,0.5-1,0.7c-0.4,0.2-0.7,0.2-1.1,0c-0.3-0.1-0.9-0.6-0.4-1.8
				c0.1-0.2,0.3-0.6,0.4-0.9c0.2,0.1,0.4,0.3,0.6,0.4l0,0c-0.3,0.1-0.5,0.2-0.7,0.6c-0.2,0.4,0,0.7,0.2,0.8c0.3,0.1,0.5,0.1,1.1-0.4
				c0.8-0.7,1.1-0.6,1.5-0.4C68,48.1,68.5,48.6,68,49.7"/>
			<defs>
				<filter id="Adobe_OpacityMaskFilter_46_" filterUnits="userSpaceOnUse" x="64.9" y="45.3" width="4.2" height="2.2">
					<feColorMatrix  type="matrix" values="1 0 0 0 0  0 1 0 0 0  0 0 1 0 0  0 0 0 1 0"/>
				</filter>
			</defs>
			<mask maskUnits="userSpaceOnUse" x="64.9" y="45.3" width="4.2" height="2.2" id="mask-4_43_">
				<g class="st94">
					<polygon id="path-3_43_" class="st2" points="4.9,70 70.4,70 70.4,4.5 4.9,4.5 					"/>
				</g>
			</mask>
			<path id="Fill-50" class="st95" d="M69,46.9c-0.1,0.2-0.1,0.3-0.2,0.6c-0.6-0.3-1.4-0.5-1.9-0.7c-0.6-0.2-1.5-0.5-2-0.4l0,0
				c0.1-0.2,0.1-0.3,0.2-0.5c0.1-0.2,0.1-0.4,0.2-0.6c0.5,0.2,1.5,0.6,1.8,0.6c0.4,0.1,1.4,0.4,2.1,0.5C69,46.7,69,46.8,69,46.9"/>
			<defs>
				<filter id="Adobe_OpacityMaskFilter_47_" filterUnits="userSpaceOnUse" x="65.4" y="41.8" width="4.4" height="3.4">
					<feColorMatrix  type="matrix" values="1 0 0 0 0  0 1 0 0 0  0 0 1 0 0  0 0 0 1 0"/>
				</filter>
			</defs>
			<mask maskUnits="userSpaceOnUse" x="65.4" y="41.8" width="4.4" height="3.4" id="mask-4_44_">
				<g class="st96">
					<polygon id="path-3_44_" class="st2" points="4.9,70 70.4,70 70.4,4.5 4.9,4.5 					"/>
				</g>
			</mask>
			<path id="Fill-51" class="st97" d="M66.6,42L66.6,42c-0.1,0.2-0.3,0.6-0.4,1.1c0.1,0,0.9,0.2,1.7,0.4c0.8,0.2,1.7,0.3,1.8,0.3
				c-0.1,0.2-0.1,0.3-0.1,0.5c0,0.2-0.1,0.3-0.1,0.5c-0.5-0.2-1.6-0.4-2-0.5c-0.4-0.1-1.2-0.2-1.6-0.3c-0.1,0.4-0.2,1-0.1,1.2l0,0
				c-0.2-0.1-0.4-0.2-0.5-0.2c0.2-0.6,0.3-1,0.4-1.5c0.1-0.6,0.2-1.1,0.3-1.7C66.2,41.9,66.4,42,66.6,42"/>
			<defs>
				<filter id="Adobe_OpacityMaskFilter_48_" filterUnits="userSpaceOnUse" x="66.2" y="37.7" width="4.2" height="3.7">
					<feColorMatrix  type="matrix" values="1 0 0 0 0  0 1 0 0 0  0 0 1 0 0  0 0 0 1 0"/>
				</filter>
			</defs>
			<mask maskUnits="userSpaceOnUse" x="66.2" y="37.7" width="4.2" height="3.7" id="mask-4_45_">
				<g class="st98">
					<polygon id="path-3_45_" class="st2" points="4.9,70 70.4,70 70.4,4.5 4.9,4.5 					"/>
				</g>
			</mask>
			<path id="Fill-52" class="st99" d="M66.9,38c0.3,0.2,0.6,0.5,1.8,1.2c0.4,0,0.6,0,0.9,0c0.3,0,0.6,0,0.8,0c0,0.2,0,0.4-0.1,0.5
				c0,0.2,0,0.3,0,0.6c-0.2-0.1-0.6-0.1-0.8-0.1c-0.3,0-0.5-0.1-0.9-0.1c-1,0.4-1.8,0.8-2,0.9c-0.1,0.1-0.4,0.2-0.5,0.3l0,0
				c0-0.2,0-0.4,0.1-0.6c0-0.2,0-0.4,0-0.7c0.1,0,0.3,0,0.4-0.1c0.3-0.1,0.8-0.2,1.5-0.6l0,0c-0.4-0.2-0.9-0.5-1.2-0.7
				c-0.2-0.1-0.4-0.1-0.5-0.1c0-0.2,0-0.3,0.1-0.5c0-0.2,0-0.3,0-0.5C66.6,37.8,66.8,38,66.9,38"/>
		</g>
	</g>
</g>
</svg>
